<?xml version="1.0" encoding="utf-8"?>
<!-- Generator: Adobe Illustrator 18.1.0, SVG Export Plug-In . SVG Version: 6.00 Build 0)  -->
<svg version="1.1" xmlns="http://www.w3.org/2000/svg" xmlns:xlink="http://www.w3.org/1999/xlink" x="0px" y="0px"
	 viewBox="0 0 31 28" enable-background="new 0 0 31 28" xml:space="preserve">
<g id="Layer_1" display="none">
	<g display="inline">
		<g>
			<polygon fill="#00AF81" points="5.4,19.2 0.9,16 0.9,22.5 			"/>
			<polygon fill="#00AF81" points="17.9,13.2 17.9,11 0.9,11 0.9,13.2 9.4,19.2 			"/>
			<polygon fill="#00AF81" points="17.9,16 13.4,19.2 17.9,22.5 			"/>
		</g>
		<polygon fill="#00AF81" points="12.4,19.9 9.4,22.1 6.4,19.9 0.9,23.9 0.9,26.1 17.9,26.1 17.9,23.9 		"/>
	</g>
</g>
<g id="Layer_1_copy">
	<g>
		<g>
			<polygon points="8.3,15.6 0,9.7 0,21.5 			"/>
			<polygon points="31,4.5 31,0.5 0,0.5 0,4.5 15.5,15.6 			"/>
			<polygon points="31,9.7 22.7,15.6 31,21.5 			"/>
		</g>
		<polygon points="20.9,16.9 15.5,20.7 10.1,16.9 0,24 0,28 31,28 31,24 		"/>
	</g>
</g>
</svg>
