<?xml version="1.0" encoding="utf-8"?>
<!-- Generator: Adobe Illustrator 18.1.0, SVG Export Plug-In . SVG Version: 6.00 Build 0)  -->
<svg version="1.1" id="Layer_1" xmlns="http://www.w3.org/2000/svg" xmlns:xlink="http://www.w3.org/1999/xlink" x="0px" y="0px"
	 viewBox="0 0 250 39" enable-background="new 0 0 250 39" xml:space="preserve">
<g>
	<path fill="#ED1B2F" d="M21,35.2c-5.6,1.2-9.1,2-14.7,3.3C6,38.6,6,38.6,5.8,38.1c-2.1-8.7-3.3-13.8-5.4-22.5
		c-0.1-0.3,0-0.4,0.4-0.5c4.5-1.1,8.9-2.1,14.2-3.2c5.1-1.1,8.7,0.8,9.4,4.7c0.5,2.5,0.2,4.7-2.8,6.1c3.2-0.5,5.2,2.2,5.8,4.9
		C28.2,31.4,25.6,34.3,21,35.2z M13.7,21.5c1.6-0.4,2.1-1.2,1.9-2.3c-0.2-1.1-1.1-1.8-2.7-1.4C11.9,18,11,18.2,10,18.4
		c0.3,1.2,0.6,2.5,0.8,3.7C11.8,21.9,12.7,21.7,13.7,21.5z M16.3,30.9c1.7-0.4,2.1-1.2,1.9-2.4c-0.2-1.2-1.1-1.8-2.7-1.4
		c-1.1,0.2-2.2,0.5-3.4,0.7c0.3,1.3,0.6,2.6,0.9,3.8C14.1,31.4,15.2,31.2,16.3,30.9z"/>
	<path fill="#F7941E" d="M6.1,39c-0.5,0-0.6-0.5-0.7-0.8L0,15.7c0-0.1-0.1-0.4,0.1-0.6c0.1-0.2,0.4-0.3,0.7-0.4
		c4.9-1.2,9.3-2.1,14.2-3.2c1-0.2,1.9-0.3,2.8-0.3c3.8,0,6.5,2,7.1,5.3c0.5,2.4-0.4,4.5-2.4,5.9c2.6,0.4,4.9,2.4,5.4,5
		c0.8,4-1.8,7.1-6.8,8.2c-5.5,1.2-9.1,2-14.6,3.3C6.3,39,6.2,39,6.1,39z M0.9,15.6L6.3,38c0,0,0,0,0,0c5.5-1.3,9.1-2.1,14.6-3.3
		c4.5-0.9,6.7-3.6,6.1-7.1c-0.4-2.3-2.6-4.2-5.2-4.5c-0.5-0.1-0.6-0.6-0.3-0.8c1.8-1.4,3.1-2.9,2.5-5.6c-0.6-2.9-2.8-4.6-6.3-4.6
		c-0.8,0-1.7,0.1-2.6,0.3C10.2,13.5,5.8,14.4,0.9,15.6C0.9,15.6,0.9,15.6,0.9,15.6z M12.6,32.2l-1-4.7l0.4-0.1
		c1.1-0.2,2.2-0.5,3.4-0.7c1.7-0.4,2.9,0.3,3.2,1.8c0.2,1.1,0,2.5-2.2,3c-1.1,0.2-2.2,0.5-3.3,0.7L12.6,32.2z M12.6,28.2l0.7,3
		c1-0.2,1.9-0.4,2.9-0.6c1.6-0.3,1.7-1.2,1.5-1.9c-0.2-1-0.9-1.3-2.2-1.1C14.6,27.7,13.6,27.9,12.6,28.2z M10.5,22.7l-1-4.6L9.9,18
		c0.9-0.2,1.9-0.4,2.8-0.6c1.7-0.4,2.9,0.3,3.2,1.8c0.1,0.7,0.2,2.3-2.2,2.9c-0.9,0.2-1.9,0.4-2.8,0.6L10.5,22.7z M10.5,18.8
		l0.6,2.9c0.8-0.2,1.6-0.4,2.4-0.5c1.8-0.4,1.6-1.4,1.5-1.8c-0.2-1-0.9-1.3-2.2-1.1C12.1,18.4,11.3,18.6,10.5,18.8z"/>
</g>
<g>
	<path fill="#ED1B2F" d="M57,17c0.9,7.4-4.5,13.5-11.3,14.5c-7.5,1.2-13.9-3.3-15.3-10.4C29,13.7,34.3,7.5,41.7,6.3
		C48.8,5.2,56,9.2,57,17z M39.1,19.7c0.5,2.9,2.6,4.3,5.3,3.8c2.6-0.4,4.3-2.4,3.9-5.3c-0.4-2.7-2.5-4.1-5.3-3.7
		C40.2,15,38.7,17.1,39.1,19.7z"/>
	<path fill="#F7941E" d="M43.3,32.2c-6.7,0-12.1-4.4-13.3-10.9c-0.6-3.4,0.1-6.9,2-9.6c2.1-3,5.6-5.2,9.6-5.8
		c0.8-0.1,1.6-0.2,2.4-0.2c7,0,12.5,4.6,13.4,11.3c0.9,7.2-4.2,13.9-11.7,15C45,32.2,44.1,32.2,43.3,32.2z M44.1,6.6
		c-0.8,0-1.5,0.1-2.3,0.2c-3.8,0.6-7.1,2.6-9,5.4c-1.8,2.6-2.5,5.7-1.9,8.9C32,27.2,37,31.3,43.3,31.3c0.8,0,1.5-0.1,2.3-0.2
		c6.1-1,11.9-6.5,10.9-14C55.8,10.9,50.7,6.6,44.1,6.6z M43.5,24L43.5,24c-2.6,0-4.4-1.6-4.8-4.3c-0.2-1.4,0-2.6,0.8-3.6
		c0.8-1.1,2-1.8,3.5-2c3-0.5,5.4,1.2,5.8,4c0.4,2.9-1.3,5.3-4.2,5.8C44.2,24,43.8,24,43.5,24z M44,14.9c-0.3,0-0.6,0-0.9,0.1
		c-1.3,0.2-2.3,0.8-2.9,1.7c-0.6,0.8-0.8,1.8-0.6,2.9c0.4,2.2,1.8,3.5,3.9,3.5l0,0c0.3,0,0.6,0,0.9-0.1c2.5-0.4,3.9-2.3,3.5-4.8
		C47.6,16.2,46.1,14.9,44,14.9z"/>
</g>
<g>
	<path fill="#ED1B2F" d="M80.2,26.2c0,0.3,0,0.3-0.3,0.3c-2.5,0.2-14.3,1.4-16.6,1.8c-0.4,0-0.4,0.1-0.4-0.3
		c-0.5-4.4-1-7.9-1.4-11.6C61,12.5,60.6,9.2,60,4.8c0-0.4,0-0.3,0.3-0.4c2.4-0.3,5.3-0.6,7.9-0.9c0.3,0,0.4,0,0.4,0.3
		c0.3,2.7,1.8,17,1.8,17c2.9-0.3,5.9-0.6,8.8-0.9c0.3,0,0.4,0,0.4,0.3C79.8,21.6,80,23.4,80.2,26.2z"/>
	<path fill="#F7941E" d="M63,28.7c-0.5,0-0.6-0.5-0.6-0.7L59.6,4.9c0-0.2-0.1-0.4,0.1-0.6C59.8,4.1,60,4.1,60.2,4
		c2.5-0.3,5.4-0.6,8-0.9c0.1,0,0.2,0,0.2,0c0.6,0,0.7,0.5,0.7,0.7l1.8,16.6c2.7-0.3,5.5-0.6,8.4-0.8c0.1,0,0.1,0,0.2,0
		c0.3,0,0.7,0.1,0.7,0.7l0.5,5.9c0.1,0.7-0.3,0.8-0.7,0.8c-2.5,0.2-14.3,1.4-16.6,1.8C63.1,28.7,63.1,28.7,63,28.7z M60.5,4.9
		l2.8,22.9c2.5-0.3,13.8-1.6,16.5-1.7l-0.5-5.7c-3,0.3-5.9,0.6-8.7,0.9l-0.4,0L68.2,4C65.7,4.3,62.9,4.6,60.5,4.9z"/>
</g>
<g>
	<path fill="#ED1B2F" d="M102.7,24.6c0,0.3,0,0.3-0.3,0.3C99.9,25,88,25.8,85.7,26c-0.4,0-0.4,0.1-0.4-0.3c-0.3-4.4-0.6-8-0.9-11.6
		c-0.3-3.9-0.6-7.3-0.9-11.7c0-0.4,0-0.3,0.3-0.3c2.4-0.2,5.3-0.4,7.9-0.6c0.3,0,0.4,0,0.4,0.3c0.2,2.8,1.1,17.1,1.1,17.1
		c2.9-0.2,5.9-0.3,8.8-0.5c0.3,0,0.4,0.1,0.4,0.3C102.5,20.1,102.6,21.9,102.7,24.6z"/>
	<path fill="#F7941E" d="M85.5,26.5c-0.5,0-0.6-0.5-0.6-0.7L83,2.5c0-0.2,0-0.4,0.1-0.6c0.2-0.2,0.4-0.2,0.5-0.2
		c2.5-0.2,5.4-0.4,8-0.6l0.2,0c0.7,0,0.7,0.5,0.7,0.7l1,16.6c2.7-0.2,5.5-0.3,8.4-0.5c0,0,0,0,0,0c0.6,0,0.8,0.3,0.9,0.8l0.3,5.9
		c0,0.7-0.4,0.8-0.8,0.8c-2.5,0.1-14.3,0.8-16.7,1C85.6,26.5,85.5,26.5,85.5,26.5z M83.9,2.5l1.8,23c2.8-0.3,13.9-0.9,16.5-1
		l-0.3-5.7c-3,0.1-5.9,0.3-8.8,0.5l-0.4,0L91.7,2C89.2,2.2,86.3,2.4,83.9,2.5z"/>
</g>
<path fill="#ED1B2F" d="M119.1,16.8c0,2.4,0.1,4.8,0.1,7.2c0,0.5,0,0.5-0.4,0.5c-2.4,0-5.6,0.1-7.9,0.2c-0.3,0-0.3,0-0.3-0.5
	c-0.1-2.2-0.1-4.4-0.2-6.5c0,0-6-9.4-10.4-16.1c-0.3-0.5-0.2-0.5,0.2-0.5c3.1-0.1,6.3-0.3,9.4-0.4c0.3,0,0.4,0,0.7,0.5
	c1.5,2.9,4.3,8.6,4.3,8.6c0,0,2.3-5.9,3.4-8.9c0.1-0.3,0.1-0.4,0.6-0.4c2.8,0,5.7-0.1,8.5-0.1c0.5,0,0.4,0,0.2,0.5
	C123.6,7.8,119.1,16.8,119.1,16.8z"/>
<path fill="#ED1B2F" d="M146.5,16.6c0,0-2.1,3.1-5.8,8.7c-0.3,0.3-0.8,0.3-0.9,0c-3.6-8.8-5.7-13.9-9.9-24.2
	c-0.3-0.6-0.3-0.6,0.2-0.6c2.9,0,5.7,0.1,8.6,0.1c0.7,0.1,0.9,0.2,1,0.7c0.9,3.1,2.4,8.6,2.4,8.6c0,0,3.9-7,4.9-8.9
	c0.2-0.4,0.8-0.4,1,0c0.9,2.1,4,9.3,4,9.3c0,0,2.1-5.7,3.3-8.7c0.1-0.4,0.1-0.3,0.5-0.3c2.8,0.2,5.5,0.3,8.3,0.5
	c0.6,0,0.6,0,0.3,0.5c-5.2,9.7-7.8,14.8-12,23.4c-0.2,0.3-0.7,0.5-1,0C148.2,19.7,146.5,16.6,146.5,16.6z"/>
<g>
	<path fill="#ED1B2F" d="M191.3,16.6c-1,7.4-7.7,11.9-14.6,11.2c-7.6-0.7-12.6-6.7-12.1-13.9c0.5-7.6,7.1-12.3,14.6-11.6
		C186.4,3,192.3,8.7,191.3,16.6z M173.3,14.6c-0.3,2.9,1.5,4.8,4.2,5c2.6,0.3,4.8-1.3,5.1-4.1c0.3-2.7-1.4-4.6-4.2-4.9
		C175.5,10.3,173.6,12,173.3,14.6z"/>
	<path fill="#F7941E" d="M178.1,28.3c-0.5,0-0.9,0-1.4-0.1c-7.8-0.8-13-6.8-12.5-14.4c0.5-7,6.2-12.1,13.5-12.1c0.5,0,1.1,0,1.6,0.1
		c4,0.4,7.6,2.3,9.9,5.2c2.1,2.7,3,6,2.6,9.5C190.9,23.4,185.1,28.3,178.1,28.3z M177.7,2.7c-6.9,0-12.2,4.7-12.6,11.2
		c-0.5,7.1,4.4,12.7,11.7,13.4c0.4,0,0.9,0.1,1.3,0.1c6.6,0,12-4.6,12.8-10.9c0.4-3.3-0.4-6.3-2.4-8.8c-2.2-2.7-5.6-4.5-9.3-4.9
		C178.7,2.7,178.2,2.7,177.7,2.7z M178.1,20.1C178.1,20.1,178.1,20.1,178.1,20.1c-0.2,0-0.4,0-0.6,0c-3-0.3-4.8-2.5-4.6-5.5
		c0.3-2.9,2.5-4.7,5.5-4.4c1.6,0.2,2.8,0.8,3.6,1.8c0.8,0.9,1.1,2.2,0.9,3.6C182.7,18.2,180.7,20.1,178.1,20.1z M177.8,11
		c-2.2,0-3.8,1.4-4,3.6c-0.2,2.6,1.2,4.3,3.8,4.6c2.5,0.2,4.3-1.3,4.6-3.7c0.1-1.2-0.1-2.2-0.7-2.9c-0.7-0.8-1.7-1.3-3-1.5
		C178.2,11,178,11,177.8,11z"/>
</g>
<g>
	<path fill="#ED1B2F" d="M221.5,21.2c-1.4,7.4-8.4,11.4-15.2,10.4c-7.5-1.2-12.2-7.4-11.3-14.6c1-7.5,7.8-11.9,15.3-10.7
		C217.3,7.4,222.9,13.4,221.5,21.2z M203.6,18.2c-0.4,2.9,1.2,4.9,3.9,5.3c2.6,0.4,4.8-1,5.3-3.8c0.5-2.7-1.1-4.7-3.9-5.1
		C206,14,204,15.6,203.6,18.2z"/>
	<path fill="#F7941E" d="M208.4,32.2c-0.7,0-1.5-0.1-2.2-0.2c-7.7-1.2-12.6-7.6-11.7-15.1c0.8-6.6,6.3-11.3,13.3-11.3
		c0.8,0,1.7,0.1,2.5,0.2c4,0.6,7.5,2.7,9.6,5.8c2,2.8,2.7,6.1,2,9.6C220.7,27.7,215.1,32.2,208.4,32.2z M207.8,6.5
		c-6.5,0-11.7,4.3-12.4,10.5c-0.9,7,3.7,12.9,10.9,14.1c0.7,0.1,1.4,0.2,2.1,0.2c6.3,0,11.5-4.2,12.6-10.2c0.6-3.3,0-6.3-1.9-8.9
		c-2-2.9-5.3-4.9-9.1-5.4C209.3,6.6,208.5,6.5,207.8,6.5z M208.4,24C208.4,24,208.4,24,208.4,24c-0.3,0-0.6,0-0.9-0.1
		c-3-0.5-4.7-2.7-4.3-5.8c0.4-2.8,2.8-4.5,5.8-4c1.6,0.2,2.8,0.9,3.5,2c0.7,1,1,2.2,0.7,3.6C212.8,22.3,210.9,24,208.4,24z
		 M207.9,14.9c-2.1,0-3.6,1.3-3.9,3.4c-0.4,2.5,1,4.4,3.5,4.8c0.3,0,0.5,0.1,0.8,0.1c2.1,0,3.7-1.4,4-3.5c0.2-1.1,0-2.2-0.6-3
		c-0.6-0.9-1.6-1.4-3-1.6C208.5,14.9,208.2,14.9,207.9,14.9z"/>
</g>
<g>
	<path fill="#ED1B2F" d="M224.1,33.8c-0.3-0.1-0.4,0-0.3-0.4c1.7-8.8,2.7-14.1,4.4-22.9c0.1-0.3,0.1-0.3,0.4-0.3
		c3.6,0.7,7.2,1.4,10.8,2.2c8.5,1.8,11.4,6.9,9.6,14.5c-1.9,7.9-7,10.6-15.5,8.8C230.4,35.1,227.2,34.4,224.1,33.8z M233.1,28.9
		c0.5,0.1,1.1,0.2,1.6,0.3c2.4,0.5,4.8-0.3,5.7-4.3c0.8-3.8-0.8-5.5-3.4-6.1c-0.6-0.1-1.2-0.2-1.7-0.4
		C234.6,21.9,233.9,25.4,233.1,28.9z"/>
	<path fill="#F7941E" d="M238.2,36.7c-1.4,0-3-0.2-4.8-0.6c-3.1-0.7-6.3-1.3-9.4-1.9c-0.2,0-0.4-0.1-0.6-0.3
		c-0.1-0.2-0.1-0.4-0.1-0.6l4.4-22.9c0-0.2,0.1-0.7,0.7-0.7c0.1,0,0.2,0,0.3,0c3.6,0.7,7.3,1.4,10.8,2.2c4.3,0.9,7.4,2.7,9,5.4
		c1.6,2.5,1.9,5.7,0.9,9.6C247.9,33.6,244.2,36.7,238.2,36.7z M224.3,33.4c3.1,0.6,6.3,1.2,9.3,1.9c8.4,1.8,13.2-0.9,15-8.5
		c0.9-3.6,0.6-6.7-0.8-8.9c-1.5-2.4-4.4-4.1-8.4-5c-3.5-0.8-7.1-1.5-10.7-2.2L224.3,33.4z M236,29.8L236,29.8c-0.4,0-0.9,0-1.3-0.1
		l-2.1-0.4L235,18l2.2,0.4c1.5,0.3,2.6,1,3.3,2c0.7,1.2,0.9,2.7,0.5,4.6C240,28.9,237.7,29.8,236,29.8z M233.7,28.5l1.2,0.3
		c2.7,0.6,4.5-0.8,5.2-4c0.4-1.6,0.2-3-0.4-3.9c-0.5-0.8-1.4-1.4-2.7-1.7l-1.3-0.3L233.7,28.5z"/>
</g>
<path fill="#F7941E" d="M127.8,0.3C127.6,0,127.3,0,127,0l-0.9,0c-2.5,0-5,0-7.5,0.1c-0.6,0-0.8,0.1-1,0.7c-0.8,2.1-2.1,5.6-2.9,7.5
	c-0.1,0.2-0.1,0.3-0.2,0.4l0,0c-0.3-0.6-0.7-1.4-1.4-2.8L110.7,1c-0.2-0.5-0.4-0.8-1-0.8l-0.1,0c-3.1,0.1-6.3,0.2-9.4,0.4
	c-0.3,0-0.6,0-0.7,0.3c-0.2,0.3,0,0.6,0.2,0.9c4.1,6.3,9.7,15,10.3,16l0.2,6.4c0,0.4,0,0.9,0.7,0.9l0.1,0c2.3-0.1,5.6-0.1,7.9-0.2
	c0.8,0,0.8-0.4,0.8-1l-0.1-7.1c0.5-0.9,4.6-9.2,8.1-15.9l0.1-0.2C127.8,0.8,127.9,0.5,127.8,0.3z M118.6,16.8l0.1,7.2c0,0,0,0,0,0
	c-2.3,0-5.4,0.1-7.7,0.2c0,0,0,0,0,0l-0.2-6.5c0,0-1.7-2.9-10.3-16.2c3.1-0.1,6.1-0.3,9.2-0.4c0,0,2.4,4.8,3.9,7.4l0,0
	c0.2,0.4,0.4,0.8,0.6,1.2c0.2,0.4,0.7,0.4,0.9-0.1c0,0,0,0,0,0c0,0,0,0,0,0c0.1-0.1,3.4-8.6,3.4-8.6c0,0,5.1-0.1,7.7-0.1l0.7,0
	C120.1,13.6,118.6,16.8,118.6,16.8z"/>
<path fill="#F7941E" d="M165.1,1.7c-0.1-0.3-0.4-0.3-0.8-0.3c-2.8-0.2-5.6-0.4-8.4-0.5l-0.1,0c-0.5,0-0.6,0.4-0.7,0.6
	c-0.8,2-2.2,5.8-2.9,7.7c-1.1-2.5-3.5-8.2-3.6-8.3c-0.3-0.7-1.4-0.8-1.8-0.1c0,0.1-3.1,5.5-4.4,7.9c-0.5-1.8-1.5-5.5-2.1-7.5
	c-0.2-0.8-0.7-0.9-1.4-1C135.8,0.1,133,0,130.1,0c-0.2,0-0.6,0-0.7,0.3c-0.2,0.3-0.1,0.5,0.1,0.9l0,0.1c4.2,10.3,6.3,15.4,9.9,24.1
	c0.2,0.6,1.2,0.7,1.7,0.1l4.4-6.6c0.4-0.7,0.8-1.1,1-1.4c0,0,0,0,0,0c0.7,1.2,2.2,4,4.7,8.4c0.2,0.3,0.5,0.6,0.8,0.6
	c0.4,0,0.7-0.2,0.9-0.6c4.1-8.3,6.6-13.3,12-23.3C165.1,2.2,165.2,2,165.1,1.7z M152.1,25.4c0,0.1-0.1,0.1-0.1,0.1l0-0.1
	c-1.6-2.9-3.2-5.8-4.2-7.5l0,0l0,0c-0.5-0.9-0.8-1.5-0.8-1.5c-0.2-0.4-0.5-0.5-0.8-0.1c0,0,0,0,0,0.1l0,0c0,0.1-0.5,0.8-1.3,2
	l-4.4,6.6c0,0-0.1,0.1-0.2,0.1c-3.6-8.8-5.7-13.9-9.9-24.2c2.7,0,5.5,0.1,8.3,0.1c0.5,0,0.6,0.1,0.6,0.3c0.7,2.5,1.4,4.9,1.9,6.7
	l0,0c0,0,0.4,1.3,0.5,1.6c0.1,0.3,0.4,0.4,0.7,0.3l0,0c0,0,0,0,0,0c0.1,0,0.1-0.1,0.2-0.2c0.2-0.4,0.4-0.8,0.6-1.2l0,0
	c1.2-2.1,3.5-6,4.3-7.3c0-0.1,0.1-0.1,0.1-0.1c0,0,0.1,0,0.1,0.1c0.7,1.5,2.4,5.5,3.3,7.7l0,0c0,0,0.5,1.2,0.6,1.5
	c0.2,0.4,0.7,0.4,0.9,0c0.2-0.3,0.4-1.1,0.7-1.7c0.1-0.3,0.2-0.6,0.4-1c0,0,0,0,0,0l0,0c0.6-1.6,1.5-4,2.3-5.9c0,0,0,0,0,0l0,0
	c2.7,0.1,5.4,0.3,8.2,0.5C158.7,12.2,156.2,17.2,152.1,25.4z"/>
</svg>
