<?xml version="1.0" encoding="utf-8"?>
<!-- Generator: Adobe Illustrator 17.1.0, SVG Export Plug-In . SVG Version: 6.00 Build 0)  -->
<!DOCTYPE svg PUBLIC "-//W3C//DTD SVG 1.1//EN" "http://www.w3.org/Graphics/SVG/1.1/DTD/svg11.dtd">
<svg version="1.1" id="Layer_1" xmlns="http://www.w3.org/2000/svg" xmlns:xlink="http://www.w3.org/1999/xlink" x="0px" y="0px"
	 viewBox="0 0 257 100" enable-background="new 0 0 257 100" xml:space="preserve">
<g>
	<g>
		<path fill="#005A9C" d="M152.8,79.3l-2-2.7l0,0c0,0-0.5-0.7-1.3-1.8l-1.2-1.7l0,0c-2.4-3.3-5.7-7.7-5.7-7.7l5.7-5.4l0,0l2.7-2.5
			c1.4-1.3,1.4-3.5,0.1-4.9c-1.3-1.4-3.5-1.4-5,0l-1.4,1.3l0,0l-11.1,10.7V37.5l0-6.2c0-2.1-1.7-3.7-3.7-3.7c-2,0-3.7,1.7-3.7,3.8
			l0,6.3l0,39l0,4.4c0,2.1,1.7,3.7,3.7,3.7c2,0,3.7-1.7,3.7-3.8v-7.2l3.5-3l5,6.9l0,0l2.9,4l0.6,0.9h0l1.1,1.5
			c1.3,1.7,3.7,2.1,5.4,0.8C153.7,83.5,154.1,81.1,152.8,79.3z"/>
		<path fill="#005A9C" d="M184.8,75.4l-1.3,0.8l-1.5,0.9c-2,1.1-4.3,1.7-7.5,1.7c-5.7,0-9.4-4.1-9.6-9.4h25.6
			c0-10.6-6.6-18.2-16.4-18.2c-9.8,0-16.7,7.4-16.7,16.9c0,11,7.4,17.5,17,17.5c4.8,0,8.7-1.2,11.8-3.2l0,0l0.1,0
			c0.4-0.2,0.7-0.5,1.1-0.8l0.9-0.6c1.6-1,2.1-3,1.1-4.5C188.5,74.9,186.4,74.4,184.8,75.4z M173.8,57.9c4.1,0,7.4,2.1,8.6,5.9
			h-17.2C166,60.2,169.5,57.9,173.8,57.9z"/>
		<path fill="#005A9C" d="M221.1,49.7c-1.9-0.6-4,0.4-4.7,2.4l-0.6,1.6L214,59l0,0l-4.8,14.3c-0.2,0.7-0.5,2-0.5,2s-0.3-1.4-0.5-2
			l-4.9-14.4l0,0l0-0.1l-0.7-2.1l0,0l-0.5-1.4l-1.2-3.6c-0.7-2-2.9-3.1-4.9-2.4c-2,0.7-3,2.9-2.3,5l0.6,1.7l1.9,5.4l0,0l8.1,23.8
			c-1.2,3.4-1.6,6.7-6.4,6.7c-0.4,0-0.9-0.1-1.4-0.2l-0.6-0.2c-1.7-0.5-3.6,0.5-4.1,2.2c-0.5,1.7,0.5,3.6,2.3,4.1l1.5,0.4l0.9,0.2
			c1.2,0.3,2.2,0.2,3.5,0.2c6.6,0,8.8-3.9,10.3-8.2l11.6-31.7l0,0l0.3-0.9l1.2-3.5C224,52.5,223,50.4,221.1,49.7z"/>
		<path fill="#005A9C" d="M239.3,64.5c-2.9-1.4-5.2-2.5-5.2-4.2c0-2,2-2.5,3.7-2.5c1.3,0,2.7,0.1,4.2,0.6l2.6,1.3
			c1.6,0.7,3.5-0.1,4.2-1.7c0.7-1.5-0.1-3.4-1.6-4.2c0,0,0,0-0.1,0c-3.2-1.9-6.8-2.5-9.6-2.5c-5.9,0-10.8,4.1-10.8,9.2
			c0,6.6,5.6,8.8,9.9,10.8c2.8,1.4,4.9,2.6,4.9,4.9c0,2-2.1,2.8-4.2,2.8c-1.2,0-2.8-0.4-4.6-1.2l-2.4-1.2c-1.7-0.7-3.6,0.1-4.3,1.7
			c-0.6,1.4,0,3.2,1.2,4.1c0,0,0,0,0,0c0,0,0,0,0.1,0c0.1,0,0.1,0.1,0.2,0.1c3,2,6.4,3.1,10.3,3.1c6.6,0,11.3-4.4,11.3-9.9
			C248.8,69.3,243.5,66.6,239.3,64.5z"/>
		<path fill="#58595B" d="M105.8,51.8c-4.3,0-7.3,2.2-8.9,4.5l0-0.8c0-2-1.6-3.6-3.6-3.6c-2,0-3.6,1.6-3.6,3.7v6.8l0,0l0,28.9l0,5
			c0,2,1.6,3.6,3.6,3.6c2,0,3.6-1.6,3.6-3.7l0-4.8V80.9c2,2.7,5.2,4.3,8.9,4.3c8.2,0,13.9-7.1,13.9-16.5
			C119.8,59.5,114,51.8,105.8,51.8z M104.4,78.5c-5,0-8.1-4.9-8.1-9.9c0-5.3,3.2-10.2,8.2-10.2c5.1,0,8,4.6,8,9.9
			C112.4,73.7,109.5,78.5,104.4,78.5z"/>
		<path fill-rule="evenodd" clip-rule="evenodd" fill="#58595B" d="M19.6,81.1c0-0.1,0-0.2,0-0.4V63.9c0-3.9-2.5-5.6-5.7-5.6
			c-3.8,0-6.8,3.1-6.8,7.1v15.8c-0.1,2-1.7,3.5-3.6,3.5c-2,0-3.6-1.6-3.6-3.6l0-0.3V55.8l0-0.3c0-2,1.6-3.6,3.6-3.6
			c2,0,3.6,1.6,3.6,3.6c1.8-2.3,5-4,8.3-4c5,0,7.8,1.8,9.9,4.9c2.4-3.4,6.9-4.9,10.1-4.9c8.2,0,10.9,5.3,10.9,11.7v17.9
			c-0.1,2-1.7,3.5-3.6,3.5c-2,0-3.6-1.6-3.6-3.6c0-0.1,0-0.3,0-0.4V63.9c0-3.9-2.3-5.6-5.5-5.6c-3.8,0-6.9,3.1-6.9,7v15.9
			c-0.1,2-1.7,3.5-3.6,3.5C21.2,84.7,19.6,83.1,19.6,81.1L19.6,81.1z"/>
		<g>
			<path fill="#005A9C" d="M238.8,2.5L238.8,2.5C238.8,2.5,238.8,2.5,238.8,2.5c0-0.2,0-0.3,0-0.5c0-0.1,0-0.1-0.1-0.2
				c0-0.1,0-0.2-0.1-0.3c0-0.1-0.1-0.1-0.1-0.2c0-0.1-0.1-0.1-0.1-0.2c-0.1-0.1-0.2-0.2-0.3-0.3c0,0,0,0,0-0.1c0,0,0,0,0,0
				c-0.1-0.1-0.2-0.2-0.4-0.3c-0.1,0-0.1-0.1-0.2-0.1c-0.1,0-0.1-0.1-0.2-0.1c-0.1,0-0.2-0.1-0.3-0.1c-0.1,0-0.1,0-0.2-0.1
				c-0.2,0-0.3,0-0.5,0h0h-17.8c-1.4,0-2.5,1.1-2.5,2.5s1.1,2.5,2.5,2.5h11.8l-16.1,16.1c-1,1-1,2.6,0,3.5c0.5,0.5,1.1,0.7,1.8,0.7
				c0.6,0,1.3-0.2,1.8-0.7l16.2-16.1v11.7c0,1.4,1.1,2.5,2.5,2.5s2.5-1.1,2.5-2.5V2.5L238.8,2.5z"/>
			<path fill="#005A9C" d="M256.7,20.3L256.7,20.3C256.7,20.3,256.7,20.2,256.7,20.3c0-0.2,0-0.3,0-0.5c0-0.1,0-0.1-0.1-0.2
				c0-0.1,0-0.2-0.1-0.3c0-0.1-0.1-0.1-0.1-0.2c0-0.1-0.1-0.1-0.1-0.2c-0.1-0.1-0.2-0.2-0.3-0.3c0,0,0,0,0-0.1c0,0,0,0,0,0
				c-0.1-0.1-0.2-0.2-0.4-0.3c-0.1,0-0.1-0.1-0.2-0.1c-0.1,0-0.1-0.1-0.2-0.1c-0.1,0-0.2-0.1-0.3-0.1c-0.1,0-0.1,0-0.2-0.1
				c-0.2,0-0.3,0-0.5,0h0h-17.8c-1.4,0-2.5,1.1-2.5,2.5c0,1.4,1.1,2.5,2.5,2.5h11.8L232,38.9c-1,1-1,2.6,0,3.5
				c0.5,0.5,1.1,0.7,1.8,0.7c0.6,0,1.3-0.2,1.8-0.7l16.2-16.1v11.7c0,1.4,1.1,2.5,2.5,2.5c1.4,0,2.5-1.1,2.5-2.5V20.3L256.7,20.3z"
				/>
		</g>
		<path fill-rule="evenodd" clip-rule="evenodd" fill="#58595B" d="M81.1,61c0-6.9-5.4-9.5-14.1-9.5c-3.5,0-7.3,0.7-10.2,2.5
			c-1,0.5-1.6,1.5-1.6,2.7c0,1.6,1.3,3,2.9,3c0.5,0,1-0.1,1.4-0.4c2.6-1.1,4.5-1.6,8.3-1.6c4.7,0,6.3,1.4,6.3,5.2h-4.7
			c-9.7,0-17,4.1-17,11.6c0,5.9,3.8,10.7,11.8,10.7c3.8,0,6.9-1,9.9-3.2c0.3,1.7,1.8,3,3.6,3c2,0,3.5-1.7,3.5-3.7L81.1,61z M74,76.2
			c-2.9,2-4.7,2.5-7.8,2.5c-3,0-6.4-1.2-6.4-4.3c0-4,4.1-5.7,12.2-5.7h2V76.2z"/>
	</g>
	<g>
		<path fill="#58595B" d="M140,43.3c-1.9,0-3.1-1.4-3.1-3.2c0-1.7,1.3-3.2,3-3.2c1.4,0,2.1,0.7,2.6,1.3l-0.7,0.6
			c-0.4-0.5-1-0.9-1.8-0.9c-1.2,0-2.1,1.1-2.1,2.2c0,1.4,0.9,2.4,2,2.4c0.9,0,1.5-0.4,2-1.1l0.7,0.5C142.1,42.6,141.1,43.3,140,43.3
			z"/>
		<path fill="#58595B" d="M146,44.5c-0.3,0.8-0.7,1.4-1.7,1.4c-0.4,0-0.6,0-0.9-0.2v-0.9c0.2,0.1,0.4,0.2,0.7,0.2
			c0.7,0,0.9-0.5,1.2-1.1l0.3-0.7l-2.3-6.1h1l1.8,4.8l1.7-4.8h1L146,44.5z"/>
		<path fill="#58595B" d="M152.4,43.3c-1.9,0-3.1-1.4-3.1-3.2c0-1.7,1.3-3.2,3-3.2c1.4,0,2.1,0.7,2.6,1.3l-0.7,0.6
			c-0.4-0.5-1-0.9-1.8-0.9c-1.2,0-2.1,1.1-2.1,2.2c0,1.4,0.9,2.4,2,2.4c0.9,0,1.5-0.4,2-1.1l0.7,0.5
			C154.5,42.6,153.6,43.3,152.4,43.3z"/>
		<path fill="#58595B" d="M156.3,43.1V32.3h1v10.8H156.3z"/>
		<path fill="#58595B" d="M159.7,40.1c0,1.3,0.8,2.3,2.1,2.3c0.9,0,1.5-0.3,2.1-0.8l0.6,0.6c-0.6,0.6-1.4,1.1-2.7,1.1
			c-1.9,0-3.1-1.4-3.1-3.3c0-1.7,1.2-3.1,3-3.1c1.9,0,2.9,1.5,2.9,3.2H159.7z M161.7,37.7c-1.1,0-1.8,0.7-2,1.6h3.8
			C163.4,38.5,162.8,37.7,161.7,37.7z"/>
		<path fill="#58595B" d="M169.3,40.1c0,1.3,0.8,2.3,2.1,2.3c0.9,0,1.5-0.3,2.1-0.8l0.6,0.6c-0.6,0.6-1.4,1.1-2.7,1.1
			c-1.9,0-3.1-1.4-3.1-3.3c0-1.7,1.2-3.1,3-3.1c1.9,0,2.9,1.5,2.9,3.2H169.3z M171.3,37.7c-1.1,0-1.8,0.7-2,1.6h3.8
			C173,38.5,172.4,37.7,171.3,37.7z"/>
		<path fill="#58595B" d="M179.4,43.1l-1.7-2.5l-1.7,2.5h-1.2l2.3-3.3l-1.9-2.7h1.2l1.3,1.9l1.3-1.9h1.1l-1.9,2.7l2.3,3.3H179.4z"/>
		<path fill="#58595B" d="M184.1,43.3c-1.9,0-3.1-1.4-3.1-3.2c0-1.7,1.3-3.2,3-3.2c1.4,0,2.1,0.7,2.6,1.3l-0.7,0.6
			c-0.4-0.5-1-0.9-1.8-0.9c-1.2,0-2.1,1.1-2.1,2.2c0,1.4,0.9,2.4,2,2.4c0.9,0,1.5-0.4,2-1.1l0.7,0.5
			C186.2,42.6,185.3,43.3,184.1,43.3z"/>
		<path fill="#58595B" d="M188.6,40.1c0,1.3,0.8,2.3,2.1,2.3c0.9,0,1.5-0.3,2.1-0.8l0.6,0.6c-0.6,0.6-1.4,1.1-2.7,1.1
			c-1.9,0-3.1-1.4-3.1-3.3c0-1.7,1.2-3.1,3-3.1c1.9,0,2.9,1.5,2.9,3.2H188.6z M190.6,37.7c-1.1,0-1.8,0.7-2,1.6h3.8
			C192.3,38.5,191.7,37.7,190.6,37.7z"/>
		<path fill="#58595B" d="M194.9,43.1V32.3h1v10.8H194.9z"/>
		<path fill="#58595B" d="M197.8,43.1V32.3h1v10.8H197.8z"/>
		<path fill="#58595B" d="M201.1,40.1c0,1.3,0.8,2.3,2.1,2.3c0.9,0,1.5-0.3,2.1-0.8l0.6,0.6c-0.6,0.6-1.4,1.1-2.7,1.1
			c-1.9,0-3.1-1.4-3.1-3.3c0-1.7,1.2-3.1,3-3.1c1.9,0,2.9,1.5,2.9,3.2H201.1z M203.1,37.7c-1.1,0-1.8,0.7-2,1.6h3.8
			C204.9,38.5,204.2,37.7,203.1,37.7z"/>
		<path fill="#58595B" d="M211.6,43.1v-3.8c0-0.9-0.5-1.5-1.4-1.5c-1.1,0-1.7,1-1.7,1.8v3.5h-1v-6h1v0.9c0.4-0.7,1.1-1.1,1.9-1.1
			c1.4,0,2.2,0.9,2.2,2.2v4H211.6z"/>
		<path fill="#58595B" d="M216.9,43.3c-1.9,0-3.1-1.4-3.1-3.2c0-1.7,1.3-3.2,3-3.2c1.4,0,2.1,0.7,2.6,1.3l-0.7,0.6
			c-0.4-0.5-1-0.9-1.8-0.9c-1.2,0-2.1,1.1-2.1,2.2c0,1.4,0.9,2.4,2,2.4c0.9,0,1.5-0.4,2-1.1l0.7,0.5C219,42.6,218.1,43.3,216.9,43.3
			z"/>
		<path fill="#58595B" d="M221.4,40.1c0,1.3,0.8,2.3,2.1,2.3c0.9,0,1.5-0.3,2.1-0.8l0.6,0.6c-0.6,0.6-1.4,1.1-2.7,1.1
			c-1.9,0-3.1-1.4-3.1-3.3c0-1.7,1.2-3.1,3-3.1c1.9,0,2.9,1.5,2.9,3.2H221.4z M223.4,37.7c-1.1,0-1.8,0.7-2,1.6h3.8
			C225.1,38.5,224.5,37.7,223.4,37.7z"/>
	</g>
	<g>
		<path fill="#58595B" d="M8.8,35.5v-1.4h1v1.4H8.8z M8.8,43.1v-6h1v6H8.8z"/>
		<path fill="#58595B" d="M15.7,43.1v-3.8c0-0.9-0.5-1.5-1.4-1.5c-1.1,0-1.7,1-1.7,1.8v3.5h-1v-6h1v0.9c0.4-0.7,1.1-1.1,1.9-1.1
			c1.4,0,2.2,0.9,2.2,2.2v4H15.7z"/>
		<path fill="#58595B" d="M22.9,43.1v-1c-0.3,0.6-1.1,1.2-2.1,1.2c-1.7,0-2.8-1.5-2.8-3.2c0-1.9,1.2-3.2,2.8-3.2
			c0.9,0,1.7,0.5,2,1.2v-5.7h1v10.8H22.9z M20.9,37.8c-1.2,0-1.9,1-1.9,2.3c0,1.2,0.7,2.3,1.9,2.3c1.2,0,2-1.1,2-2.3
			C22.9,38.9,22.1,37.8,20.9,37.8z"/>
		<path fill="#58595B" d="M25.7,35.5v-1.4h1v1.4H25.7z M25.7,43.1v-6h1v6H25.7z"/>
		<path fill="#58595B" d="M31.1,43.3c-1.9,0-3.1-1.4-3.1-3.2c0-1.7,1.3-3.2,3-3.2c1.4,0,2.1,0.7,2.6,1.3l-0.7,0.6
			c-0.4-0.5-1-0.9-1.8-0.9c-1.2,0-2.1,1.1-2.1,2.2c0,1.4,0.9,2.4,2,2.4c0.9,0,1.5-0.4,2-1.1l0.7,0.5C33.2,42.6,32.3,43.3,31.1,43.3z
			"/>
		<path fill="#58595B" d="M38.9,43.1v-0.6c-0.5,0.4-1.2,0.8-2.1,0.8c-1.3,0-2.2-0.8-2.2-2c0-1.4,1.3-2.2,3.2-2.2h1.1v-0.3
			c0-0.9-0.6-1.2-1.5-1.2c-0.7,0-1.3,0.1-1.8,0.4l-0.4-0.7c0.5-0.3,1.4-0.5,2.1-0.5c1.7,0,2.5,0.6,2.5,1.8v4.4H38.9z M38.9,40h-0.8
			c-1.6,0-2.5,0.4-2.5,1.3c0,0.7,0.7,1.1,1.4,1.1c0.8,0,1.4-0.3,1.9-0.7V40z"/>
		<path fill="#58595B" d="M43.6,43.1c-1.1,0-1.8-0.4-1.8-1.6v-3.6h-0.9v-0.9h0.9v-2.8h1v2.8h1.1v0.9h-1.1v3.6c0,0.5,0.3,0.7,0.8,0.7
			c0,0,0.3,0,0.3,0v0.9C43.9,43.1,43.6,43.1,43.6,43.1z"/>
		<path fill="#58595B" d="M48.1,43.3c-1.8,0-3.1-1.3-3.1-3.2c0-1.8,1.3-3.2,3.1-3.2c1.8,0,3.2,1.4,3.2,3.2
			C51.2,41.9,49.9,43.3,48.1,43.3z M48.1,37.8c-1.3,0-2.1,1-2.1,2.3c0,1.4,0.9,2.3,2.1,2.3c1.3,0,2.2-1,2.2-2.3
			C50.2,38.7,49.3,37.8,48.1,37.8z"/>
		<path fill="#58595B" d="M55.9,38.1c-0.3-0.2-0.6-0.3-0.9-0.3c-0.8,0-1.4,0.9-1.4,1.9v3.4h-1v-6h1v0.8c0.3-0.6,0.9-1,1.6-1
			c0.5,0,0.8,0.1,1.2,0.5L55.9,38.1z"/>
		<path fill="#58595B" d="M59.2,43.3c-0.8,0-1.6-0.3-2.1-0.7l0.5-0.7c0.5,0.4,1.1,0.6,1.6,0.6c0.6,0,1.2-0.3,1.2-0.9
			c0-0.7-0.6-0.9-1.3-1.1c-0.8-0.3-1.8-0.7-1.8-1.8c0-1,1-1.6,2-1.6c0.7,0,1.3,0.2,1.9,0.6l-0.4,0.7c-0.5-0.3-1-0.5-1.5-0.5
			c-0.5,0-1,0.2-1,0.8c0,0.5,0.5,0.8,1.2,1c0.9,0.3,1.9,0.7,1.9,2C61.3,42.5,60.3,43.3,59.2,43.3z"/>
		<path fill="#58595B" d="M68.1,43.3c-1.8,0-3.1-1.3-3.1-3.2c0-1.8,1.3-3.2,3.1-3.2c1.8,0,3.2,1.4,3.2,3.2
			C71.3,41.9,69.9,43.3,68.1,43.3z M68.1,37.8c-1.3,0-2.1,1-2.1,2.3c0,1.4,0.9,2.3,2.1,2.3c1.3,0,2.2-1,2.2-2.3
			C70.3,38.7,69.4,37.8,68.1,37.8z"/>
		<path fill="#58595B" d="M73.9,37.9v5.2h-1v-5.2h-1v-0.9h1v-3.4c0-0.9,0.7-1.3,1.4-1.3c0.1,0,0.5,0,0.6,0v0.9c0,0-0.4,0-0.4,0
			c-0.3,0-0.6,0.2-0.6,0.8v3.1h1v0.9H73.9z"/>
		<path fill="#58595B" d="M82.1,38.1c-0.3-0.2-0.6-0.3-0.9-0.3c-0.8,0-1.4,0.9-1.4,1.9v3.4h-1v-6h1v0.8c0.3-0.6,0.9-1,1.6-1
			c0.5,0,0.8,0.1,1.2,0.5L82.1,38.1z"/>
		<path fill="#58595B" d="M84,40.1c0,1.3,0.8,2.3,2.1,2.3c0.9,0,1.5-0.3,2.1-0.8l0.6,0.6c-0.6,0.6-1.4,1.1-2.7,1.1
			c-1.9,0-3.1-1.4-3.1-3.3c0-1.7,1.2-3.1,3-3.1c1.9,0,2.9,1.5,2.9,3.2H84z M86,37.7c-1.1,0-1.8,0.7-2,1.6h3.8
			C87.7,38.5,87,37.7,86,37.7z"/>
		<path fill="#58595B" d="M92.2,43.4l-2.8-6.3h1.1l1.8,4.1l1.8-4.1h1L92.2,43.4z"/>
		<path fill="#58595B" d="M96.5,40.1c0,1.3,0.8,2.3,2.1,2.3c0.9,0,1.5-0.3,2.1-0.8l0.6,0.6c-0.6,0.6-1.4,1.1-2.7,1.1
			c-1.9,0-3.1-1.4-3.1-3.3c0-1.7,1.2-3.1,3-3.1c1.9,0,2.9,1.5,2.9,3.2H96.5z M98.5,37.7c-1.1,0-1.8,0.7-2,1.6h3.8
			C100.2,38.5,99.5,37.7,98.5,37.7z"/>
		<path fill="#58595B" d="M106.9,43.1v-3.8c0-0.9-0.5-1.5-1.4-1.5c-1.1,0-1.7,1-1.7,1.8v3.5h-1v-6h1v0.9c0.4-0.7,1.1-1.1,1.9-1.1
			c1.4,0,2.2,0.9,2.2,2.2v4H106.9z"/>
		<path fill="#58595B" d="M113.7,43.1v-0.9c-0.4,0.6-1.1,1.1-1.9,1.1c-1.4,0-2.2-0.9-2.2-2.2v-4h1v3.8c0,0.8,0.5,1.5,1.4,1.5
			c1.1,0,1.7-1,1.7-1.9v-3.5h1v6H113.7z"/>
		<path fill="#58595B" d="M117,40.1c0,1.3,0.8,2.3,2.1,2.3c0.9,0,1.5-0.3,2.1-0.8l0.6,0.6c-0.6,0.6-1.4,1.1-2.7,1.1
			c-1.9,0-3.1-1.4-3.1-3.3c0-1.7,1.2-3.1,3-3.1c1.9,0,2.9,1.5,2.9,3.2H117z M119,37.7c-1.1,0-1.8,0.7-2,1.6h3.8
			C120.7,38.5,120.1,37.7,119,37.7z"/>
	</g>
</g>
</svg>
