<?xml version="1.0" encoding="utf-8"?>
<!-- Generator: Adobe Illustrator 18.1.0, SVG Export Plug-In . SVG Version: 6.00 Build 0)  -->
<svg version="1.1" id="Guggenheim_LOGOTYPE" xmlns="http://www.w3.org/2000/svg" xmlns:xlink="http://www.w3.org/1999/xlink"
	 x="0px" y="0px" viewBox="0 0 170 13" enable-background="new 0 0 170 13" xml:space="preserve">
<path fill="#FFFFFF" d="M7.4,5.3v2.1h4.8v2.9H2.8v-8h12.1V0H2.6C1.1,0,0,1.1,0,2.6v7.5c0,1.4,1.1,2.6,2.6,2.6h9.7
	c1.4,0,2.6-1.1,2.6-2.6V5.3H7.4z"/>
<path fill="#FFFFFF" d="M30.2,0v10.3h-8.3V0h-3v10.1c0,1.4,1.1,2.6,2.6,2.6h9.2c1.4,0,2.6-1.1,2.6-2.6V0H30.2z"/>
<path fill="#FFFFFF" d="M44.6,5.3v2.1h4.8v2.9h-9.5v-8H52V0H39.7c-1.4,0-2.6,1.1-2.6,2.6v7.5c0,1.4,1.1,2.6,2.6,2.6h9.7
	c1.4,0,2.6-1.1,2.6-2.6V5.3H44.6z"/>
<path fill="#FFFFFF" d="M63.1,5.3v2.1h4.8v2.9h-9.5v-8h12.1V0H58.2c-1.4,0-2.6,1.1-2.6,2.6v7.5c0,1.4,1.1,2.6,2.6,2.6H68
	c1.4,0,2.6-1.1,2.6-2.6V5.3H63.1z"/>
<polygon fill="#FFFFFF" points="88,2.2 88,0 74.8,0 74.8,12.6 88,12.6 88,10.5 77.7,10.5 77.7,7 85.6,7 85.6,4.9 77.7,4.9 77.7,2.2 
	"/>
<path fill="#FFFFFF" d="M102.9,0H91.1v12.6H94V2.3h8.6v10.4h2.9V2.6C105.5,1.1,104.3,0,102.9,0z"/>
<polygon fill="#FFFFFF" points="121.5,0 121.5,4.9 112.1,4.9 112.1,0 109.2,0 109.2,12.6 112.1,12.6 112.1,7.2 121.5,7.2 
	121.5,12.6 124.4,12.6 124.4,0 "/>
<polygon fill="#FFFFFF" points="141.5,2.2 141.5,0 128.3,0 128.3,12.6 141.5,12.6 141.5,10.5 131.3,10.5 131.3,7 139.2,7 139.2,4.9 
	131.3,4.9 131.3,2.2 "/>
<rect x="144.8" y="0" fill="#FFFFFF" width="2.9" height="12.6"/>
<path fill="#FFFFFF" d="M167.4,0h-15.8v12.6h2.9V2.3h4.8v10.4h2.9V2.3h4.8v10.4h2.9V2.6C170,1.1,168.9,0,167.4,0z"/>
</svg>
