<?xml version="1.0" encoding="utf-8"?>
<!-- Generator: Adobe Illustrator 18.1.0, SVG Export Plug-In . SVG Version: 6.00 Build 0)  -->
<svg version="1.1" id="Layer_1" xmlns="http://www.w3.org/2000/svg" xmlns:xlink="http://www.w3.org/1999/xlink" x="0px" y="0px"
	 viewBox="0 0 485.5 170.8" enable-background="new 0 0 485.5 170.8" xml:space="preserve">
<g>
	<g>
		<g>
			<path fill="#888888" d="M170.7,159.5h-1.1v10.8h-5.4V141h6.8c6.1,0,10,3.2,10,9.1C181,156.2,177.1,159.4,170.7,159.5z M171,145.4
				h-1.3v9.7h1.2c3.3,0,5-1.6,5-4.9C175.9,147.1,174.3,145.4,171,145.4z"/>
			<path fill="#888888" d="M192.3,158.7H191v11.6h-5.3V141h6.9c5.9,0,9.8,3.1,9.8,8.6c0,4-1.9,6.6-5.1,7.9l6.6,12.1l-5.2,0.9
				L192.3,158.7z M192.2,154.8c3.3,0,5-1.6,5-4.7c0-3-1.7-4.6-4.9-4.6h-1.4v9.3H192.2z"/>
			<path fill="#888888" d="M217.7,170.8c-7.2,0-10.6-6.2-10.6-15.1c0-8.9,3.5-15.2,10.6-15.2c7.1,0,10.6,6.2,10.6,15.1
				C228.3,164.5,224.8,170.8,217.7,170.8z M217.7,145c-3.8,0-5.2,4.3-5.2,10.6s1.4,10.6,5.2,10.6c3.6,0,5.1-4.3,5.1-10.6
				S221.3,145,217.7,145z"/>
			<path fill="#888888" d="M233.9,170.6c-0.9,0-2.2-0.1-2.8-0.2l-0.8-4.8c0.8,0.2,1.4,0.3,2.4,0.3c2,0,3.3-0.8,3.3-3.4V141h5.4V163
				C241.4,168.4,238.7,170.6,233.9,170.6z"/>
			<path fill="#888888" d="M247.8,170.3V141h14.1v4.6h-8.8v7h6.5l0.8,4.7h-7.3v8.3h9.2v4.6H247.8z"/>
			<path fill="#888888" d="M277,170.8c-7.2,0-10.6-6.1-10.6-15.1c0-8.9,3.6-15.2,10.6-15.2c2.7,0,4.7,0.7,6.4,1.8l-0.8,4.9
				c-1.8-1.4-3.1-2-5.2-2c-3.7,0-5.5,4.1-5.5,10.5c0,6.4,1.9,10.5,5.9,10.5c1.9,0,3.3-0.8,5.3-2.2l0.8,4.8
				C281.8,169.9,279.7,170.8,277,170.8z"/>
			<path fill="#888888" d="M299.1,145.8v24.4h-5.4v-24.4h-6.4V141h18l0.8,4.8H299.1z"/>
			<path fill="#888888" d="M316.6,170.6c-2.8,0-5.2-0.6-7.5-1.7l0.8-4.7c2.2,1.2,4.1,2,6.4,2c2.1,0,3.4-1.1,3.4-3
				c0-2.1-1.1-3.4-4.3-5.7c-3.3-2.3-6-4.6-6-8.9c0-4.5,3.1-7.8,8-7.8c2.8,0,4.4,0.5,6.1,1.4l-0.8,4.9c-1.8-1.2-3.3-1.7-5-1.7
				c-2,0-2.9,1.4-2.9,2.8c0,1.9,1.3,3.2,4.1,5.1c3.6,2.5,6.1,5,6.1,9.5C325.1,167.6,321.7,170.6,316.6,170.6z"/>
		</g>
		<g>
			<path fill="#888888" d="M224.3,4.8v24.4h-5.4V4.8h-6.4V0h18l0.8,4.8H224.3z"/>
			<path fill="#888888" d="M248.8,29.2V16.3h-7.6v12.9h-5.4V0h5.4v11.5h7.6V0h5.4v29.2H248.8z"/>
			<path fill="#888888" d="M260.7,29.2V0h14.1v4.6H266v7h6.5l0.8,4.7H266v8.3h9.2v4.6H260.7z"/>
		</g>
		<g>
			<path fill="#888888" d="M12.2,62.9v16.9h13.2l1.8,10.7h-15v27.3H0V52.3h30.5v10.6H12.2z"/>
			<path fill="#888888" d="M61.9,119.1c-16,0-23.7-14-23.7-33.9c0-20,7.9-34.1,23.8-34.1S85.8,65,85.8,85
				C85.8,105,77.8,119.1,61.9,119.1z M62,61.2c-8.5,0-11.6,9.7-11.6,23.8c0,14.2,3.2,23.8,11.6,23.8c8.2,0,11.5-9.7,11.5-23.8
				C73.5,70.9,70.1,61.2,62,61.2z"/>
			<path fill="#888888" d="M118.2,119c-14,0-20.6-8-20.6-21.3V52.3h12.2v45.2c0,6.7,2.4,11.3,8.5,11.3c6,0,8.6-4.2,8.6-11.2V52.3
				H139v45.1C139,111.2,131.6,119,118.2,119z"/>
			<path fill="#888888" d="M184.6,117.8l-20.4-41.6v41.6h-11.1V52.3h11.5l18.6,39.8V52.3h11v65.5H184.6z"/>
			<path fill="#888888" d="M222.8,117.8h-14.1V52.3h14.1c20,0,28.8,12.3,28.8,32.7S242.5,117.8,222.8,117.8z M223.3,62.3h-2.5v45.5
				h2.4c9.9,0,16.1-6.5,16.1-22.7C239.3,68.9,233,62.3,223.3,62.3z"/>
			<path fill="#888888" d="M257.9,117.8l17.8-65.7h13.9l17.2,64.2l-12.2,2.2l-4.2-17.4h-16.6l-3.9,16.7H257.9z M276.1,91.2h12.1
				l-6-25L276.1,91.2z"/>
			<path fill="#888888" d="M333.6,63v54.8h-12.2V63H307V52.3h40.3L349,63H333.6z"/>
			<path fill="#888888" d="M359.5,117.8V52.3h12.2v65.5H359.5z"/>
			<path fill="#888888" d="M408.2,119.1c-16,0-23.7-14-23.7-33.9c0-20,7.9-34.1,23.8-34.1S432,65,432,85
				C432,105,424,119.1,408.2,119.1z M408.3,61.2c-8.5,0-11.6,9.7-11.6,23.8c0,14.2,3.2,23.8,11.6,23.8c8.2,0,11.5-9.7,11.5-23.8
				C419.8,70.9,416.3,61.2,408.3,61.2z"/>
			<path fill="#888888" d="M475.9,117.8l-20.4-41.6v41.6h-11.1V52.3h11.5l18.6,39.8V52.3h11v65.5H475.9z"/>
		</g>
	</g>
</g>
</svg>
