<?xml version="1.0" encoding="utf-8"?>
<!-- Generator: Adobe Illustrator 18.1.0, SVG Export Plug-In . SVG Version: 6.00 Build 0)  -->
<svg version="1.1" xmlns="http://www.w3.org/2000/svg" xmlns:xlink="http://www.w3.org/1999/xlink" x="0px" y="0px"
	 viewBox="0 0 37 28" enable-background="new 0 0 37 28" xml:space="preserve">
<g id="Layer_1" display="none">
	<path display="inline" fill="#00AF81" d="M29.4,14.1c-0.8,0.1-1.9,0-2.5-0.3c1.3-0.1,2.1-0.7,2.4-1.6c-0.5,0.3-1.9,0.6-2.6,0.3
		c0-0.2-0.1-0.4-0.1-0.6c-0.6-2.4-2.6-4.3-4.7-4c0.2-0.1,0.3-0.1,0.5-0.2c0.2-0.1,1.6-0.3,1.4-0.9c-0.2-0.5-1.9,0.4-2.2,0.5
		c0.4-0.2,1.1-0.5,1.2-1c-0.6,0.1-1.3,0.4-1.7,0.9c0.2-0.2,0.3-0.5,0.3-0.7c-1.7,1.2-2.7,3.6-3.5,5.9c-0.6-0.7-1.2-1.2-1.7-1.5
		c-1.4-0.8-3.1-1.7-5.7-2.7c-0.1,1,0.4,2.2,1.9,3.1c-0.3,0-0.9,0.1-1.4,0.2c0.2,1.1,0.8,2,2.5,2.4c-0.8,0.1-1.2,0.2-1.5,0.7
		c0.4,0.8,1.2,1.7,2.8,1.5c-1.7,0.8-0.7,2.3,0.7,2.1c-2.4,2.7-6.1,2.5-8.3,0.2c5.6,8.4,17.9,4.9,19.7-3.1
		C28.1,15.2,28.9,14.7,29.4,14.1z"/>
</g>
<g id="Layer_1_copy">
	<path d="M37,12.8c-1.3,0.2-3.2,0-4.2-0.5c2.1-0.2,3.5-1.2,4-2.6c-0.7,0.5-3.1,1-4.4,0.5c-0.1-0.3-0.1-0.6-0.2-0.9
		c-1-3.9-4.3-7.1-7.8-6.7c0.3-0.1,0.6-0.2,0.8-0.3c0.4-0.1,2.7-0.6,2.3-1.4c-0.3-0.8-3.1,0.6-3.6,0.8c0.7-0.3,1.8-0.8,1.9-1.6
		c-1,0.2-2.1,0.7-2.9,1.5c0.3-0.3,0.5-0.8,0.6-1.2c-2.8,2-4.5,5.9-5.8,9.7c-1-1.1-2-2-2.8-2.5C12.7,6.2,9.9,4.8,5.5,3
		C5.4,4.6,6.2,6.7,8.7,8.1C8.2,8,7.2,8.2,6.4,8.4c0.3,1.8,1.4,3.3,4.1,4c-1.3,0.1-1.9,0.4-2.5,1.1c0.6,1.3,2,2.7,4.6,2.4
		c-2.8,1.3-1.2,3.8,1.1,3.4C9.8,23.8,3.6,23.5,0,19.8c9.3,13.8,29.6,8.2,32.6-5.1C34.8,14.6,36.2,13.8,37,12.8z"/>
</g>
</svg>
