<?xml version="1.0" encoding="utf-8"?>
<!-- Generator: Adobe Illustrator 18.1.0, SVG Export Plug-In . SVG Version: 6.00 Build 0)  -->
<svg version="1.1" id="Layer_1" xmlns="http://www.w3.org/2000/svg" xmlns:xlink="http://www.w3.org/1999/xlink" x="0px" y="0px"
	 viewBox="0 0 250 48" enable-background="new 0 0 250 48" xml:space="preserve">
<g>
	<g>
		<path fill="#555759" d="M196.4,47.6l-0.1,0l-0.1-0.1c-0.4-0.6-1.3-1.5-3.3-3.9l0,0l-6.6-7.6c-1.5-1.7-2.4-2.7-2.9-3.3l0,0
			c0,0.3,0,0.7,0,1.3l0,0v5.5c0,2.1,0.1,4.7,0.5,5.5l0,0c0.2,0.3,0.6,0.5,1.3,0.6l0,0l0.7,0.1l0.1,0c0.2,0.2,0.3,0.4,0.3,0.6l0,0
			c0,0.2-0.1,0.5-0.4,0.6l0,0l0,0l0,0c-1-0.1-2.1-0.1-3.2-0.1l0,0c-1.2,0-1.9,0-2.9,0.1l0,0l-0.1,0l-0.1,0c-0.2-0.2-0.3-0.4-0.3-0.6
			l0,0c0-0.2,0.1-0.4,0.2-0.5l0,0l0,0l0.1,0l0.6-0.1c0.6-0.1,1-0.2,1.1-0.5l0,0c0.3-0.8,0.4-3.3,0.4-5.5l0,0V33c0-0.1,0-0.3,0-0.4
			l0,0c0-1.9,0-2.2-0.9-2.9l0,0c-0.2-0.2-1-0.4-1.4-0.5l0,0l-0.5-0.1l0,0c-0.2-0.2-0.2-0.3-0.2-0.5l0,0c0-0.2,0.1-0.6,0.4-0.7l0,0
			l0,0l0,0c0.7,0.1,1.6,0.1,2.4,0.1l0,0c0.4,0,0.7,0,0.9,0l0,0c0.6,0,1.3,0,1.9-0.1l0,0l0.2,0l0.1,0.2c0.4,1.1,3.5,4.7,4.5,5.8l0,0
			l2.8,3.1c1,1.1,3,3.4,3.8,4.2l0,0c0-0.1,0-0.1,0-0.2l0,0v-5.5c0-2.1-0.1-4.7-0.5-5.5l0,0c-0.2-0.3-0.6-0.5-1.2-0.6l0,0l-0.7-0.1
			l0,0c-0.2-0.2-0.3-0.4-0.3-0.6l0,0c0-0.2,0.1-0.5,0.4-0.6l0,0l0,0l0,0c1.1,0.1,2.1,0.1,3.2,0.1l0,0c1.2,0,1.9,0,3-0.1l0,0l0.1,0
			l0.1,0c0.2,0.2,0.3,0.4,0.3,0.6l0,0c0,0.2-0.1,0.4-0.2,0.5l0,0l-0.1,0l-0.1,0l-0.7,0.1c-0.6,0.1-0.9,0.2-1.1,0.5l0,0
			c-0.4,0.8-0.4,3.3-0.4,5.5l0,0V42c0,0.8,0,4.3,0.1,5l0,0l0,0.1l-0.1,0.1c-0.3,0.4-0.7,0.5-1,0.5l0,0
			C196.5,47.6,196.4,47.6,196.4,47.6L196.4,47.6z"/>
	</g>
	<path fill="#555759" d="M51.3,28.1c-1.4,0.1-2.2,0.1-3.3,0.1c-0.9,0-2.1,0-3.5-0.1c-0.3,0.2-0.4,0.4-0.4,0.7c0,0.2,0.1,0.5,0.2,0.6
		l0,0l1.1,0.1c0.6,0.1,0.7,0.2,0.7,0.6c0,0.2-0.2,1.2-0.8,2.9c-0.5,1.2-2.1,5.3-2.7,6.9c-0.3,0.8-0.6,1.4-0.8,1.6
		c-0.1-0.2-0.3-0.6-0.7-1.4c-1.1-2.4-2.4-5.7-3.5-9c-0.2-0.5-0.3-0.8-0.3-1.1c0-0.4,0.2-0.5,1.2-0.7l0.6-0.1
		c0.2-0.2,0.3-0.4,0.3-0.7c0-0.3-0.1-0.6-0.3-0.7c-1.7,0.1-2.6,0.1-3.9,0.1c-1.6,0-2.9,0-4.1-0.1c-0.3,0.1-0.4,0.4-0.4,0.7
		c0,0.2,0.1,0.5,0.2,0.6l0,0l0.7,0.1c1.6,0.2,2,1.7,2.7,3.4l3.9,9.5c0.7,1.7,1.4,3.6,1.8,4.9c0.2,0.2,0.5,0.3,0.7,0.3
		c0.2,0,0.4,0,0.6-0.2c0.6-1.6,1.1-2.7,1.6-3.9c0.7-1.9,3.7-8.7,4.3-10c1.4-2.7,1.8-3.8,3.3-4l0.7-0.1c0.2-0.2,0.3-0.4,0.3-0.7
		C51.6,28.6,51.6,28.3,51.3,28.1z"/>
	<path fill="#82BC00" d="M177.6,46L177.6,46L177.6,46l-0.7-0.1c-0.8-0.1-1.8-0.4-2.4-1c-0.9-0.9-2.6-2.7-4.4-4.8
		c-1.6-1.8-2.3-2.7-3.1-3.8c-0.1-0.1-0.2-0.3-0.2-0.4c0-0.2,0.1-0.4,0.5-0.7c0.8-0.8,2.4-2.5,4.3-3.9c1.2-1,2-1.5,2.9-1.6l1.5-0.3
		c0.1-0.1,0.2-0.3,0.2-0.6c0-0.3-0.1-0.6-0.3-0.7c-2.6,0.3-5.4,0.4-7.5,0.4h-1.1c-0.2,0.1-0.3,0.4-0.3,0.6c0,0.3,0.1,0.5,0.3,0.6
		l1.1,0.1c0.8,0.1,1,0.2,1,0.4c0,0.2-0.3,0.7-1.6,2.1l-1.9,2.1c-1.3,1.3-2.1,1.8-3.2,1.8c-0.8,0-0.8-0.1-0.8-0.7V6.7
		c0,0,0-0.1,0-0.1V0.4c0-0.3-0.3-0.4-0.4-0.4c0,0,0,0,0,0c0,0-0.2,0-0.7,0c-2.7,0-4.9,3.9-8.1,4.4c-1.1,0.2-1.9,0.2-2.6,0.2
		c-0.9,0-1.6-0.1-2.7-0.1c-0.6,0-1.2,0-2,0.1c-5.8,0.6-6.8,6.9-6.8,7.7c0,0.1,0,0.1,0,0.1v0h0v0c0.5-0.3,1.4-1.9,4-1.9
		c0,0,0.1,0,0.1,0c1.9,0,4.3,0.8,7.7,3.1c3,2,5.8,3,6.9,3.3c0,0,1.1,0.3,1.1,1c0,1,0,23.9,0,23.9c0,3.4,0,3.8-1.8,4.1l-1,0.1
		c-0.2,0.1-0.3,0.3-0.3,0.6c0,0.3,0.1,0.6,0.3,0.7c1.4-0.1,2.8-0.1,4.5-0.1c1.6,0,3,0,4.6,0.1c0.2-0.1,0.3-0.4,0.3-0.7
		c0-0.2-0.1-0.4-0.2-0.5l-1.1-0.1c-1.7-0.2-1.8-0.7-1.8-4.1v-2.6c0-1.5,0-1.6,0.9-1.6c0.5,0,1,0.2,1.4,0.6l5,5.8
		c0.6,0.7,0.8,1,0.8,1.3c0,0.2-0.4,0.4-1.1,0.4l-0.8,0.1c-0.2,0.1-0.2,0.3-0.2,0.5c0,0.3,0.1,0.6,0.3,0.7c1.4-0.1,3-0.1,4.9-0.1
		c1.5,0,3.1,0,4.5,0.1c0.2-0.1,0.3-0.4,0.3-0.7C177.8,46.3,177.7,46.1,177.6,46z M168,47L168,47L168,47z"/>
	<path fill="#555759" d="M4.1,47c-1.1,0-2.4,0-3.8,0.1l0,0C0.1,47,0,46.8,0,46.5l0,0c0-0.2,0-0.4,0.2-0.5l0,0l0,0l0,0l0.6-0.1
		c1.4-0.2,1.5-0.1,1.5-3.3l0,0V31.8c0-2.9,0-3.1-1.3-3.2l0,0l-0.7-0.1c-0.2-0.1-0.2-0.3-0.2-0.5l0,0c0-0.2,0.1-0.4,0.3-0.6l0,0
		c2.1-0.2,4.5-0.3,7.4-0.3l0,0c2.8,0,4.8,0.2,7,1l0,0c3.6,1.3,6.1,4.5,6.1,9l0,0c0,3.3-1.7,6.7-5.4,8.6l0,0
		c-2.1,1.1-4.7,1.4-7.4,1.4l0,0C6.6,47.2,5.2,47,4.1,47L4.1,47z M9.3,45.8c5.2,0,7.5-3.6,7.5-8.6l0,0c0-5.8-3.3-8.5-8.2-8.5l0,0
		c-1.2,0-2.2,0.3-2.3,0.4l0,0c-0.1,0.1-0.2,0.7-0.2,2.1l0,0v10.4C6.2,44.4,6.3,45.7,9.3,45.8L9.3,45.8z"/>
	<path fill="#555759" d="M30.7,47.2c0.1-0.1,0.3-0.3,0.3-0.6l0,0c0-0.2-0.1-0.4-0.2-0.5l0,0l-1-0.1c-1.7-0.2-1.9-0.8-1.8-4.1l0,0
		v-8.5c0-1.9,0.1-4.2,0.2-5.8l0,0c0-0.1-0.2-0.2-0.4-0.2l0,0c-1.1,0.7-3.8,1.9-4.8,2.3l0,0c-0.1,0.1-0.2,0.2-0.2,0.4l0,0
		c0,0.1,0,0.3,0.1,0.4l0,0l0.4,0.3c1.3,0.8,1.3,1.1,1.3,3l0,0v8.2c0,3.4-0.1,3.9-1.8,4.1l0,0l-1,0.1c-0.1,0.1-0.2,0.3-0.2,0.5l0,0
		c0,0.3,0.1,0.5,0.2,0.6l0,0c1.3-0.1,2.7-0.1,4.4-0.1l0,0C28,47.1,29.3,47.1,30.7,47.2L30.7,47.2z"/>
	<path fill="#82BC00" d="M112.8,36.4c-0.2-0.1-0.2-0.1-0.2-0.1c0,0,0-0.1,0.1-0.1c2.1-0.7,3.3-2,3.3-3.8c0-1.9-0.7-3-2.1-3.8
		c-1.3-0.8-3.3-1-5.7-1c-3.2,0-5.3,0.1-6.6,0.3c-0.2,0.1-0.2,0.3-0.2,0.5c0,0.2,0.1,0.3,0.2,0.5l0.8,0.1c1.3,0.2,1.3,0.4,1.4,3.2
		v10.7c0,3.1-0.2,3.1-1.6,3.3l-0.6,0.1c-0.1,0.1-0.2,0.3-0.2,0.5c0,0.2,0.1,0.4,0.2,0.5c1.3-0.1,2.7-0.1,4-0.1
		c1.1,0,2.3,0.1,3.6,0.1c3.3,0,5.3-0.5,6.7-1.6c1.4-1.1,1.8-2.6,1.8-3.9C117.5,38.2,115,36.8,112.8,36.4z M108.4,36.1
		c-1.2,0-1.2,0-1.2-0.7v-5.3c0-1.2,0-1.1,1.5-1.2c1.8,0,3.6,1,3.6,3.5C112.3,35,111.1,36.1,108.4,36.1z M107.2,38
		c0-0.6,0-0.7,1.3-0.7c3.2,0,5.2,1.7,5.2,4.7c0,2.6-1.7,3.8-3.7,3.8c-2.5,0-2.8-1-2.8-3.7V38z"/>
	<path fill="#82BC00" d="M137.6,45c-0.2,0-0.4,0.2-0.6,0.3c-0.3,0.1-0.7,0.3-1.1,0.3c-1.6,0-2.1-1.6-2.1-3.5c0-0.2,0-0.4,0-0.5
		l0.3-8.2c0-0.1,0-0.3,0-0.4c0-3.3-1.7-5.1-4.9-5.1c-3.5,0-8.8,3.3-8.8,5.8c0,0.4,0.3,0.7,0.7,0.7c0.7,0,2-0.3,2.7-0.9
		c0.4-0.3,0.4-0.9,0.5-1.6c0.1-1.4,1.6-2.1,3-2.1c2.8,0,3.4,2.1,3.4,3.8v0.2l-0.1,2.2c0,0.7-0.1,1.1-0.8,1.3l0,0.1l0-0.1l-5.6,2
		c-3,1.1-3.9,2.2-3.9,4.1c0,1.3,0.6,2.5,1.5,3.3c0.8,0.7,2,1.1,3.3,1.1c1.3,0,2.4-0.6,3.4-1.2c0.9-0.5,1.5-0.9,1.8-0.9
		c0.2,0,0.5,0.4,0.7,0.6c0.8,1.1,2,1.5,3.1,1.5c2.3,0,4-1.8,4-2.1C138,45.3,137.9,45,137.6,45z M130.3,39.4l-0.1,2.8
		c0,1,0,1.6-0.6,2.2c-0.4,0.5-1.9,1.2-2.8,1.2c-2.4,0-2.9-2-2.9-2.8c0-1.8,1.3-2.5,4.1-3.4c0.8-0.3,1.6-0.5,1.9-0.5
		C130.2,38.9,130.3,38.9,130.3,39.4z"/>
	<path fill="#82BC00" d="M154.4,42.2c0,0-0.1,0-0.1,0c-1.1,1.6-2.5,2.8-5.2,2.8c-5,0-7.5-4.3-7.5-8c0-5,3.2-7.5,6.4-7.5
		c1.9,0,3.6,1.2,4.7,2.5c0.2,0.2,0.5,0.4,0.7,0.4c0.6,0,1.1-0.9,1.1-1.8c0-0.8-0.3-1.6-0.7-1.9l0,0l0-0.1c-1.3-0.6-3.1-0.8-4.2-0.8
		c-7.8,0-11.4,5.4-11.4,10.5c0,3.1,1.1,5.4,2.7,7c1.7,1.6,4,2.4,6.5,2.4c2.7,0,6.3-1.3,7.9-4.8C155.1,42.5,154.7,42.2,154.4,42.2z"
		/>
	<path fill="#555759" d="M214.2,33.6c0-1.8,0-2.1-1.3-2.9l-0.4-0.3c-0.2-0.2-0.2-0.7,0-0.8c1.1-0.4,3.8-1.6,4.7-2.3
		c0.2,0,0.4,0.1,0.5,0.3c-0.1,1.1-0.1,1.8-0.1,2.2c0,0.3,0.2,0.5,0.5,0.5c2-1.2,4.2-2.4,6.6-2.4c3.9,0,5.5,2.7,5.5,5.8v8.1
		c0,3.4,0.1,3.9,1.8,4.1l1,0.1c0.3,0.2,0.2,1-0.1,1.2c-1.4-0.1-2.8-0.1-4.4-0.1c-1.7,0-3.1,0-4.4,0.1c-0.3-0.1-0.4-0.9-0.1-1.2
		l0.9-0.1c1.7-0.3,1.8-0.7,1.8-4.1v-7c0-2.7-1.2-4.7-4.4-4.7c-1.8,0-3.3,0.8-4,1.6c-0.6,0.8-0.7,1.5-0.7,2.8v7.2
		c0,3.4,0.1,3.8,1.8,4.1l0.8,0.1c0.3,0.2,0.2,1-0.1,1.2c-1.3-0.1-2.6-0.1-4.3-0.1c-1.7,0-3.1,0-4.4,0.1c-0.3-0.1-0.4-0.9-0.1-1.2
		l1-0.1c1.7-0.2,1.8-0.7,1.8-4.1V33.6z"/>
	<path fill="#555759" d="M209.7,47.2c0.1-0.1,0.3-0.3,0.3-0.6l0,0c0-0.2-0.1-0.4-0.2-0.5l0,0l-1-0.1c-1.7-0.2-1.9-0.8-1.8-4.1l0,0
		v-8.5c0-1.9,0.1-4.2,0.2-5.8l0,0c0-0.1-0.2-0.2-0.4-0.2l0,0c-1.1,0.7-3,1.9-4.1,2.3l0,0c-0.1,0.1-0.2,0.2-0.2,0.4l0,0
		c0,0.1,0,0.3,0.1,0.4l0,0l0.4,0.3c0.7,0.7,0.6,1.1,0.6,3l0,0v8.2c0,3.4-0.1,3.9-1.8,4.1l0,0l-1,0.1c-0.1,0.1-0.2,0.3-0.2,0.5l0,0
		c0,0.3,0.1,0.5,0.2,0.6l0,0c1.3-0.1,2.7-0.1,4.4-0.1l0,0C206.9,47.1,208.3,47.1,209.7,47.2L209.7,47.2z"/>
	<path fill="#555759" d="M249.3,42.7c-0.1,0-0.2,0-0.3,0c-1.5,1.8-2.8,2.3-4.3,2.3c-5,0-7.7-4-7.7-8.7c0-1.2,0-1.2,1.2-1.2h8.7
		c2,0,2.6,0,2.8-0.4c0.1-0.2,0.2-0.6,0.2-1.2c0-2.9-2.7-5.6-6.7-5.6c-5.7,0-9.5,4.9-9.5,10.7c0,2.1,0.6,4.3,2,6.1
		c1.4,1.8,3.8,3.1,6.9,3.1c2.5,0,5.9-1.2,7.4-4.4C250,43,249.7,42.7,249.3,42.7z M237.6,33.4c0-1.5,2.4-4,5.2-4
		c2.7,0,3.6,1.6,3.6,2.9c0,0.6-0.1,0.8-0.3,0.8c-0.4,0.3-1.4,0.5-4.9,0.5h-3.3C237.5,33.5,237.6,33.5,237.6,33.4z"/>
	<path fill="#555759" d="M65,33.6c0-1.8,0-2.1-1.3-2.9l-0.4-0.3c-0.2-0.2-0.2-0.7,0-0.8c1.1-0.4,3.8-1.6,4.7-2.3
		c0.2,0,0.4,0.1,0.5,0.3c-0.1,1.1-0.1,1.8-0.1,2.2c0,0.3,0.2,0.5,0.5,0.5c2-1.2,4.2-2.4,6.6-2.4c3.9,0,5.5,2.7,5.5,5.8v8.1
		c0,3.4,0.1,3.9,1.8,4.1l1,0.1c0.3,0.2,0.2,1-0.1,1.2C82.4,47.1,81,47,79.4,47c-1.7,0-3.1,0-4.4,0.1c-0.3-0.1-0.4-0.9-0.1-1.2
		l0.9-0.1c1.7-0.3,1.8-0.7,1.8-4.1v-7c0-2.7-1.2-4.7-4.4-4.7c-1.8,0-3.3,0.8-4,1.6c-0.6,0.8-0.7,1.5-0.7,2.8v7.2
		c0,3.4,0.1,3.8,1.8,4.1l0.8,0.1c0.3,0.2,0.2,1-0.1,1.2c-1.3-0.1-2.6-0.1-4.3-0.1c-1.7,0-3.1,0-4.4,0.1C62,47,61.9,46.3,62.2,46
		l1-0.1c1.7-0.2,1.8-0.7,1.8-4.1V33.6z"/>
	<path fill="#555759" d="M60.5,47.2c0.1-0.1,0.3-0.3,0.3-0.6l0,0c0-0.2-0.1-0.4-0.2-0.5l0,0l-1-0.1c-1.7-0.2-1.9-0.8-1.8-4.1l0,0
		v-8.5c0-1.9,0.1-4.2,0.2-5.8l0,0c0-0.1-0.2-0.2-0.4-0.2l0,0c-1.1,0.7-3,1.9-4.1,2.3l0,0c-0.1,0.1-0.2,0.2-0.2,0.4l0,0
		c0,0.1,0,0.3,0.1,0.4l0,0l0.4,0.3c0.7,0.7,0.6,1.1,0.6,3l0,0v8.2c0,3.4-0.1,3.9-1.8,4.1l0,0l-1,0.1c-0.1,0.1-0.2,0.3-0.2,0.5l0,0
		c0,0.3,0.1,0.5,0.2,0.6l0,0c1.3-0.1,2.7-0.1,4.4-0.1l0,0C57.7,47.1,59.1,47.1,60.5,47.2L60.5,47.2z"/>
	<path fill="#555759" d="M99.5,42.7c-0.1,0-0.2,0-0.3,0C97.8,44.6,96.5,45,95,45c-5,0-7.7-4-7.7-8.7c0-1.2,0-1.2,1.2-1.2h8.7
		c2,0,2.6,0,2.8-0.4c0.1-0.2,0.2-0.6,0.2-1.2c0-2.9-2.7-5.6-6.7-5.6c-5.7,0-9.5,4.9-9.5,10.7c0,2.1,0.6,4.3,2,6.1
		c1.4,1.8,3.8,3.1,6.9,3.1c2.5,0,5.9-1.2,7.4-4.4C100.2,43,99.9,42.7,99.5,42.7z M87.8,33.4c0-1.5,2.4-4,5.2-4
		c2.7,0,3.6,1.6,3.6,2.9c0,0.6-0.1,0.8-0.3,0.8c-0.4,0.3-1.4,0.5-4.9,0.5H88C87.7,33.5,87.8,33.5,87.8,33.4z"/>
</g>
</svg>
