<?xml version="1.0" encoding="utf-8"?>
<!-- Generator: Adobe Illustrator 18.1.0, SVG Export Plug-In . SVG Version: 6.00 Build 0)  -->
<svg version="1.1" id="Layer_1" xmlns="http://www.w3.org/2000/svg" xmlns:xlink="http://www.w3.org/1999/xlink" x="0px" y="0px"
	 viewBox="0 0 16 15" enable-background="new 0 0 16 15" xml:space="preserve">
<g>
	<path fill="#231F20" d="M1.9,3.5c-0.6,0-1-0.2-1.4-0.5C0.2,2.7,0,2.2,0,1.7c0-0.5,0.2-0.9,0.5-1.3C0.9,0.2,1.4,0,1.9,0
		c0.6,0,1,0.2,1.4,0.5c0.3,0.3,0.5,0.7,0.5,1.3c0,0.5-0.2,0.9-0.5,1.3C2.9,3.3,2.5,3.5,1.9,3.5L1.9,3.5z M3.5,5.1V15H0.3V5.1H3.5z
		 M8.6,15V9.2c0-0.6,0.2-1.1,0.5-1.4c0.3-0.3,0.8-0.5,1.3-0.5c0.5,0,0.9,0.2,1.3,0.6c0.3,0.4,0.5,0.9,0.5,1.7V15h3.2V9.2
		c0-1.4-0.3-2.5-1-3.3c-0.7-0.8-1.6-1.2-2.8-1.2c-1.2,0-2.1,0.6-2.9,1.7L8.5,5.1H5.4l0.1,2.2V15L8.6,15L8.6,15z"/>
</g>
</svg>
