<?xml version="1.0" encoding="utf-8"?>
<!-- Generator: Adobe Illustrator 18.1.0, SVG Export Plug-In . SVG Version: 6.00 Build 0)  -->
<svg version="1.1" id="Layer_1" xmlns="http://www.w3.org/2000/svg" xmlns:xlink="http://www.w3.org/1999/xlink" x="0px" y="0px"
	 viewBox="0 0 300 17" enable-background="new 0 0 300 17" xml:space="preserve">
<path fill="#53294F" d="M81.9,7.1v2.8h6.4v4H75.6V3.1h16.3V0H75.3c-1.9,0-3.4,1.5-3.4,3.4v10.1c0,1.9,1.5,3.4,3.4,3.4h13.1
	c1.9,0,3.4-1.5,3.4-3.4V7.1H81.9z"/>
<path fill="#959595" d="M16.5,0H3.4C1.5,0,0,1.5,0,3.4v10.1C0,15.4,1.5,17,3.4,17h13.1c1.9,0,3.4-1.5,3.4-3.4V3.4
	C20,1.5,18.4,0,16.5,0z M16.3,13.9H3.7V3.1h12.6V13.9z"/>
<path fill="#53294F" d="M112.4,0v13.8h-11.2V0h-4v13.5c0,1.9,1.5,3.4,3.4,3.4H113c1.9,0,3.4-1.5,3.4-3.4V0H112.4z"/>
<path fill="#53294F" d="M131.7,7.1v2.8h6.4v4h-12.7V3.1h16.3V0h-16.5c-1.9,0-3.4,1.5-3.4,3.4v10.1c0,1.9,1.5,3.4,3.4,3.4h13.1
	c1.9,0,3.4-1.5,3.4-3.4V7.1H131.7z"/>
<path fill="#53294F" d="M156.5,7.1v2.8h6.4v4h-12.7V3.1h16.3V0H150c-1.9,0-3.4,1.5-3.4,3.4v10.1c0,1.9,1.5,3.4,3.4,3.4h13.1
	c1.9,0,3.4-1.5,3.4-3.4V7.1H156.5z"/>
<polygon fill="#53294F" points="189.9,2.9 189.9,0 172.2,0 172.2,17 189.9,17 189.9,14.1 176.2,14.1 176.2,9.4 186.7,9.4 186.7,6.5 
	176.2,6.5 176.2,2.9 "/>
<polygon fill="#959595" points="67.2,2.9 67.2,0 49.5,0 49.5,17 67.2,17 67.2,14.1 53.5,14.1 53.5,9.4 64,9.4 64,6.5 53.5,6.5 
	53.5,2.9 "/>
<path fill="#53294F" d="M209.9,0h-15.8v17h3.9V3h11.5V17h3.9V3.4C213.4,1.5,211.8,0,209.9,0z"/>
<path fill="#959595" d="M40.8,0H24.9v17h3.9V3h11.5V17h3.9V3.4C44.2,1.5,42.7,0,40.8,0z"/>
<polygon fill="#53294F" points="234.9,0 234.9,6.5 222.3,6.5 222.3,0 218.4,0 218.4,17 222.3,17 222.3,9.6 234.9,9.6 234.9,17 
	238.9,17 238.9,0 "/>
<polygon fill="#53294F" points="261.8,2.9 261.8,0 244.1,0 244.1,17 261.8,17 261.8,14.1 248,14.1 248,9.4 258.6,9.4 258.6,6.5 
	248,6.5 248,2.9 "/>
<rect x="266.2" fill="#53294F" width="3.9" height="17"/>
<path fill="#53294F" d="M296.6,0h-21.2v17h3.9V3h6.4V17h3.9V3h6.4V17h3.9V3.4C300,1.5,298.5,0,296.6,0z"/>
</svg>
