<?xml version="1.0" encoding="utf-8"?>
<!-- Generator: Adobe Illustrator 15.0.0, SVG Export Plug-In . SVG Version: 6.00 Build 0)  -->
<!DOCTYPE svg PUBLIC "-//W3C//DTD SVG 1.1//EN" "http://www.w3.org/Graphics/SVG/1.1/DTD/svg11.dtd">
<svg version="1.1" id="Layer_1" xmlns="http://www.w3.org/2000/svg" xmlns:xlink="http://www.w3.org/1999/xlink" x="0px" y="0px"
	 width="34px" height="26px" viewBox="0 0 34 26" enable-background="new 0 0 34 26" xml:space="preserve">
<g>
	<path fill="#231F20" d="M0.094,20.549c0.125-0.127,0.218-0.221,0.342-0.252c0.343-0.127,0.624,0.032,0.686,0.347
		c0.03,0.316,0,0.632,0,0.916c-0.062,0.727-0.094,1.484,0.124,2.178c0.281,0.979,1.682,1.484,2.492,0.884
		c0.406-0.284,0.779-0.632,1.123-1.01c0.155-0.159,0.249-0.379,0.312-0.6c0.218-0.822,0.279-1.674,0.218-2.495
		c-0.188-1.705-0.468-3.379-0.966-4.99c-0.623-1.989-1.09-4.01-1.9-5.903C2.057,8.55,1.621,7.477,1.246,6.402
		C0.934,5.615,0.685,4.825,0.499,4.003c-0.249-0.946,0-1.863,0.312-2.714C1.06,0.594,1.682,0.215,2.398,0.088
		c0.561-0.094,1.154-0.126,1.683-0.032c0.872,0.126,1.526,0.758,1.9,1.516C6.356,2.299,6.48,3.087,6.356,3.94
		C6.325,4.161,6.231,4.382,5.95,4.414c-0.28,0.032-0.56-0.125-0.623-0.41c-0.062-0.284-0.062-0.6-0.062-0.884
		c0-0.852-0.312-1.484-1.059-1.894c-0.997-0.538-2.244-0.064-2.555,1.01c-0.218,0.694-0.218,1.39,0,2.053
		C1.931,5.11,2.274,5.929,2.586,6.75c0.218,0.663,0.467,1.295,0.716,1.958c0.25,0.695,0.53,1.358,0.779,2.053
		c0.249,0.726,0.436,1.453,0.654,2.179c0.094,0.346,0.125,0.694,0.249,1.01c0.437,1.042,0.655,2.115,0.936,3.22
		c0.405,1.705,0.56,3.473,0.467,5.241c-0.062,1.074-0.499,1.927-1.34,2.558c-0.281,0.221-0.592,0.38-0.873,0.569
		c-0.809,0.663-1.682,0.537-2.523,0.095c-0.187-0.063-0.342-0.19-0.499-0.252c-0.623-0.252-0.903-0.728-0.997-1.326
		C0.094,23.39,0.031,22.759,0,22.097C0,21.591,0.062,21.086,0.094,20.549z"/>
	<path fill="#231F20" d="M14.923,22.065c-1.713-0.348-3.272,0.284-4.923,0.189l-0.187,0.79c-0.125,0.599-0.218,1.231-0.312,1.831
		c-0.093,0.378-0.311,0.505-0.654,0.442c-0.343-0.096-0.499-0.285-0.436-0.695l0.281-1.484c0.155-0.82,0.28-1.673,0.436-2.494
		l0.405-2.494c0.28-1.989,0.592-3.979,0.873-5.936c0.25-1.927,0.561-3.82,0.779-5.716c0.187-1.484,0.281-3,0.405-4.483
		c0.031-0.632,0.28-1.105,0.81-1.421c0.218-0.158,0.592-0.063,0.685,0.19c0.125,0.346,0.28,0.726,0.28,1.104
		c-0.062,0.885,0.094,1.737,0.218,2.622c0.187,1.326,0.281,2.683,0.436,4.009c0.25,2.148,0.53,4.263,0.811,6.411l0.748,5.368
		c0.093,0.599,0.218,1.2,0.343,1.8c0.155,0.788,0.312,1.578,0.436,2.368c0.031,0.188,0.031,0.379,0.031,0.568
		c-0.031,0.285-0.312,0.505-0.561,0.473c-0.28,0-0.53-0.221-0.56-0.473c-0.094-0.694-0.156-1.358-0.219-2.052
		C15.016,22.728,14.955,22.443,14.923,22.065z M12.431,4.257c-0.156,1.358-0.249,2.43-0.406,3.504
		c-0.124,0.789-0.311,1.579-0.436,2.369c-0.218,1.452-0.374,2.904-0.562,4.357c-0.186,1.326-0.436,2.652-0.591,3.979
		c-0.094,0.79-0.406,1.547-0.249,2.431c0.218,0.095,0.436,0.221,0.685,0.252c0.343,0.032,0.685,0,1.028-0.032
		c0.903-0.094,1.775-0.189,2.71-0.283v-0.537c-0.156-1.137-0.343-2.274-0.499-3.411c-0.218-1.641-0.467-3.284-0.685-4.895
		c-0.156-1.231-0.343-2.431-0.467-3.662c-0.094-1.105-0.157-2.21-0.281-3.347C12.68,4.825,12.586,4.666,12.431,4.257z"/>
	<path fill="#231F20" d="M19.938,11.898c-0.187,0.915-0.187,1.832-0.094,2.683c0.094,1.105,0.031,2.148,0,3.22
		c0,2.052,0,4.105-0.032,6.126c0,0.379-0.062,0.79-0.124,1.137c-0.031,0.285-0.343,0.41-0.561,0.378
		c-0.218-0.062-0.373-0.221-0.373-0.473c0.031-1.011,0.031-2.021,0.062-3c0.031-0.189,0.094-0.379,0.094-0.568v-8.336
		c0-0.537,0.062-1.074,0.094-1.611c0-1.989,0-4.01-0.188-5.999c-0.03-0.378-0.03-0.757-0.03-1.136
		c0.093-1.169,0.03-2.305-0.094-3.474c-0.031-0.062,0.031-0.126,0.063-0.252c0.499-0.474,1.152-0.537,1.776-0.505
		c0.654,0.031,1.308,0.095,1.931,0.221c0.841,0.158,1.713,0.19,2.555,0.095c0.25-0.031,0.467-0.063,0.716-0.063
		s0.436,0.284,0.375,0.568c-0.125,0.569-0.406,0.726-0.904,0.601c-0.25-0.032-0.468-0.095-0.686-0.095
		c-0.904,0.032-1.776-0.064-2.68-0.221c-0.654-0.095-1.339-0.126-2.025,0.096c-0.155,3.093-0.062,6.124,0.094,9.187
		c0.467,0.285,0.965,0.379,1.464,0.285l1.215-0.189c0.281-0.032,0.592,0,0.717,0.316c0.156,0.347-0.062,0.599-0.156,0.852
		C22.087,11.771,21.06,11.834,19.938,11.898z"/>
	<path fill="#231F20" d="M29.222,24.148c0.406-0.031,0.748-0.062,1.153-0.125c0.093,0,0.187,0,0.281-0.032h0.498
		c0.062,0,0.125,0,0.187,0h0.404c0.343,0,0.685,0,1.091-0.125c0.156-0.031,0.312-0.031,0.467-0.095h0.094c0.031,0,0.031,0,0.062,0
		c0.312,0,0.499,0.221,0.53,0.442c0.031,0.221,0,0.537-0.125,0.726c-0.062,0.159-0.249,0.412-0.529,0.412
		c-0.063,0-0.125-0.032-0.218-0.064c-0.094-0.063-0.187-0.063-0.281-0.063c-0.156,0-0.312,0.032-0.467,0.063l-0.031,0.032
		c-0.031,0-0.062,0-0.093,0.032c-0.093,0.031-0.187,0.063-0.281,0.063c-0.031,0-0.062,0-0.062-0.032
		c-0.188-0.031-0.406-0.031-0.624-0.031c-0.343,0-0.654,0.031-0.997,0.063c-0.343,0.03-0.654,0.062-0.965,0.062h-0.157
		c-0.311,0-0.685-0.032-1.121-0.094c-0.249-0.031-0.498-0.443-0.498-0.758v-0.158c0-0.032,0.031-0.064,0.031-0.095
		c0.155-1.263,0.155-2.557,0.124-3.979c0-0.315,0.031-0.599,0.063-0.915l0.062-0.632c0-0.285,0-0.538,0-0.79
		c0.031-1.167,0.093-2.335,0.187-3.473c0.062-0.694,0.031-1.357-0.031-1.989c-0.125-2.148-0.094-4.358-0.063-6.473V5.393
		c0-0.915-0.031-1.894-0.093-2.778c-0.031-0.379-0.031-0.758-0.062-1.136c0-0.063,0-0.159-0.032-0.252
		c0-0.189-0.031-0.38-0.031-0.538c0.031-0.189,0.25-0.537,0.436-0.537h0.031c0.218,0,0.406-0.032,0.655-0.095
		c0.249,0,0.499-0.031,0.748-0.031h0.312c0.56,0.062,1.184,0.094,1.745,0.094c0.249,0.032,0.56,0.032,0.809,0.032h0.157
		c0.187,0.032,0.343,0.032,0.498,0.063c0.187,0.032,0.281,0.158,0.374,0.316c0.094,0.126,0.125,0.315,0.094,0.442
		c-0.094,0.378-0.312,0.569-0.561,0.569h-0.156c-0.467-0.159-0.965-0.222-1.589-0.222h-0.748c-0.28,0.031-0.592,0.031-0.903,0
		c-0.094,0-0.157-0.03-0.188-0.03c-0.218,0-0.373,0.062-0.498,0.157v0.631c0,0.505,0,1.042,0,1.61v1.327c0,0.348,0,0.663-0.03,1.042
		V6.12v2.274c0,0.505,0,1.072,0.03,1.609v0.601c0.219,0,0.437,0,0.624-0.032c0.623-0.063,1.246-0.127,1.838-0.157
		c0.062,0,0.125,0,0.218-0.032c0.124,0,0.25-0.032,0.342-0.032c0.188,0,0.437,0.032,0.686,0.284l0.062,0.062v0.063
		c-0.093,0.632-0.187,1.105-0.716,1.105c-0.093,0-0.218-0.032-0.405-0.064c-0.249-0.063-0.592-0.093-0.934-0.093
		c-0.53,0-1.06,0.093-1.714,0.283c0,0.031,0,0.063,0,0.095c0.219,1.452,0.125,2.842,0,4.262c-0.062,0.821-0.093,1.674-0.093,2.589
		v3.694c0,0.537,0,1.042,0,1.516H29.222z"/>
</g>
</svg>
