<?xml version="1.0" encoding="utf-8"?>
<!-- Generator: Adobe Illustrator 18.1.0, SVG Export Plug-In . SVG Version: 6.00 Build 0)  -->
<svg version="1.1" id="Layer_1" xmlns="http://www.w3.org/2000/svg" xmlns:xlink="http://www.w3.org/1999/xlink" x="0px" y="0px"
	 viewBox="0 0 20 20" enable-background="new 0 0 20 20" xml:space="preserve">
<path fill="#FFFFFF" d="M19.5,17.2L14.2,12c0.8-1.2,1.3-2.7,1.3-4.3c0-4.2-3.5-7.7-7.8-7.7C3.5,0,0,3.5,0,7.7c0,4.2,3.5,7.7,7.8,7.7
	c1.5,0,2.9-0.4,4-1.1l5.3,5.3c0.3,0.3,0.8,0.5,1.2,0.5c0.4,0,0.9-0.2,1.2-0.5C20.2,18.9,20.2,17.8,19.5,17.2z M3.3,7.7
	c0-2.4,2-4.4,4.5-4.4s4.5,2,4.5,4.4c0,2.4-2,4.4-4.5,4.4S3.3,10.1,3.3,7.7z"/>
</svg>
