<?xml version="1.0" encoding="utf-8"?>
<!-- Generator: Adobe Illustrator 18.1.0, SVG Export Plug-In . SVG Version: 6.00 Build 0)  -->
<svg version="1.1" xmlns="http://www.w3.org/2000/svg" xmlns:xlink="http://www.w3.org/1999/xlink" x="0px" y="0px"
	 viewBox="0 0 36 36" enable-background="new 0 0 36 36" xml:space="preserve">
<g id="Layer_1" display="none">
	<g display="inline">
		<rect x="6.5" y="12.6" fill="#00AF81" width="4.5" height="14.6"/>
		<path fill="#00AF81" d="M23.6,13.5c-1.7-0.9-4.1-1-5.9-0.2v-0.7h-4.5v14.6h4.5v-8.9l1.8-0.9c0.5-0.2,1.4-0.2,1.9,0
			c0.3,0.2,0.8,0.9,0.8,1.4v8.4h4.5v-8.4C26.7,16.7,25.4,14.5,23.6,13.5z"/>
		<circle fill="#00AF81" cx="8.7" cy="9.2" r="2.2"/>
	</g>
</g>
<g id="Layer_1_copy">
	<g>
		<rect x="0" y="10" width="8" height="26"/>
		<path d="M30.5,11.6c-3-1.7-7.4-1.8-10.5-0.4V10h-8v26h8V20.1l3.3-1.6c0.8-0.4,2.6-0.4,3.3,0.1c0.6,0.3,1.4,1.6,1.4,2.4v15h8V21
			C36,17.3,33.7,13.4,30.5,11.6z"/>
		<path d="M4,0C1.8,0,0,1.8,0,4c0,2.2,1.8,4,4,4c2.2,0,4-1.8,4-4C8,1.8,6.2,0,4,0z"/>
	</g>
</g>
</svg>
