<?xml version="1.0" encoding="utf-8"?>
<!-- Generator: Adobe Illustrator 18.1.0, SVG Export Plug-In . SVG Version: 6.00 Build 0)  -->
<svg version="1.1" id="Layer_1" xmlns="http://www.w3.org/2000/svg" xmlns:xlink="http://www.w3.org/1999/xlink" x="0px" y="0px"
	 viewBox="0 0 80 30" enable-background="new 0 0 80 30" xml:space="preserve">
<g>
	<polygon fill="#FFFFFF" points="10.9,10.8 4.4,10.8 4.4,0.4 2,0.4 2,13 10.9,13 	"/>
	
		<radialGradient id="SVGID_1_" cx="72.2205" cy="-6.0857" r="36.3657" gradientTransform="matrix(0.8693 0 0 0.9435 -22.033 21.33)" gradientUnits="userSpaceOnUse">
		<stop  offset="0" style="stop-color:#78651B"/>
		<stop  offset="1" style="stop-color:#A0A157"/>
	</radialGradient>
	<polygon fill="url(#SVGID_1_)" points="10.9,10.8 4.4,10.8 4.4,0.4 2,0.4 2,13 10.9,13 	"/>
	<path fill="#FFFFFF" d="M18.5,0.4L12.9,13h2.6l1.1-2.4h6.6l1.1,2.4h2.6L21.1,0.4H18.5z M17.5,8.5l2.3-5.4l2.3,5.4H17.5z"/>
	
		<radialGradient id="SVGID_2_" cx="40.7476" cy="15.5619" r="31.6873" gradientTransform="matrix(1 0 0 1.0017 0 0)" gradientUnits="userSpaceOnUse">
		<stop  offset="0" style="stop-color:#78651B"/>
		<stop  offset="1" style="stop-color:#A0A157"/>
	</radialGradient>
	<path fill="url(#SVGID_2_)" d="M18.5,0.4L12.9,13h2.6l1.1-2.4h6.6l1.1,2.4h2.6L21.1,0.4H18.5z M17.5,8.5l2.3-5.4l2.3,5.4H17.5z"/>
	<path fill="#FFFFFF" d="M32.7,11.2c-1.5,0-3-0.6-3.5-2l-2,1c0.9,2.3,2.9,3.1,5.5,3.1c2.8,0,5.3-1.2,5.3-4c0-3-2.4-3.7-5.1-4
		c-1.5-0.2-2.8-0.5-2.8-1.6c0-0.9,0.8-1.7,2.6-1.7c1.4,0,2.6,0.7,3,1.4l1.9-1c-1-1.9-3-2.5-4.9-2.5c-2.3,0-4.9,1.1-4.9,3.7
		c0,2.8,2.4,3.5,4.9,3.8c1.7,0.2,2.9,0.7,2.9,1.9C35.6,10.7,34.2,11.2,32.7,11.2z"/>
	
		<radialGradient id="SVGID_3_" cx="72.2205" cy="-6.0857" r="36.3657" gradientTransform="matrix(0.8693 0 0 0.9435 -22.033 21.33)" gradientUnits="userSpaceOnUse">
		<stop  offset="0" style="stop-color:#78651B"/>
		<stop  offset="1" style="stop-color:#A0A157"/>
	</radialGradient>
	<path fill="url(#SVGID_3_)" d="M32.7,11.2c-1.5,0-3-0.6-3.5-2l-2,1c0.9,2.3,2.9,3.1,5.5,3.1c2.8,0,5.3-1.2,5.3-4c0-3-2.4-3.7-5.1-4
		c-1.5-0.2-2.8-0.5-2.8-1.6c0-0.9,0.8-1.7,2.6-1.7c1.4,0,2.6,0.7,3,1.4l1.9-1c-1-1.9-3-2.5-4.9-2.5c-2.3,0-4.9,1.1-4.9,3.7
		c0,2.8,2.4,3.5,4.9,3.8c1.7,0.2,2.9,0.7,2.9,1.9C35.6,10.7,34.2,11.2,32.7,11.2z"/>
	<path fill="#FFFFFF" d="M43.3,13h2.4V2.6H49V0.4c-3.7,0-6,0-9.6,0v2.2h4V13z"/>
	
		<radialGradient id="SVGID_4_" cx="72.2205" cy="-6.0857" r="36.3657" gradientTransform="matrix(0.8693 0 0 0.9435 -22.033 21.33)" gradientUnits="userSpaceOnUse">
		<stop  offset="0" style="stop-color:#78651B"/>
		<stop  offset="1" style="stop-color:#A0A157"/>
	</radialGradient>
	<path fill="url(#SVGID_4_)" d="M43.3,13h2.4V2.6H49V0.4c-3.7,0-6,0-9.6,0v2.2h4V13z"/>
	<rect x="51" y="0.4" fill="#FFFFFF" width="2.4" height="12.6"/>
	
		<radialGradient id="SVGID_5_" cx="72.2205" cy="-6.0857" r="36.3657" gradientTransform="matrix(0.8693 0 0 0.9435 -22.033 21.33)" gradientUnits="userSpaceOnUse">
		<stop  offset="0" style="stop-color:#78651B"/>
		<stop  offset="1" style="stop-color:#A0A157"/>
	</radialGradient>
	<rect x="51" y="0.4" fill="url(#SVGID_5_)" width="2.4" height="12.6"/>
	<polygon fill="#FFFFFF" points="58.5,4.5 65.2,13.1 65.2,13 66.6,13 66.6,0.4 64.3,0.4 64.3,8.3 58.1,0.4 56.2,0.4 56.2,13 
		58.5,13 	"/>
	
		<radialGradient id="SVGID_6_" cx="72.2205" cy="-6.0857" r="36.3657" gradientTransform="matrix(0.8693 0 0 0.9435 -22.033 21.33)" gradientUnits="userSpaceOnUse">
		<stop  offset="0" style="stop-color:#78651B"/>
		<stop  offset="1" style="stop-color:#A0A157"/>
	</radialGradient>
	<polygon fill="url(#SVGID_6_)" points="58.5,4.5 65.2,13.1 65.2,13 66.6,13 66.6,0.4 64.3,0.4 64.3,8.3 58.1,0.4 56.2,0.4 56.2,13 
		58.5,13 	"/>
	<path fill="#FFFFFF" d="M74.6,7.9h3.2v2.2c-1,0.8-1.9,1-2.8,1c-3.1,0-4.3-2.1-4.3-4.2c0-2.6,1.6-4.6,4.3-4.6c1.1,0,2.4,0.5,3.2,1.3
		L79.7,2c-1.3-1.3-3-1.9-4.7-1.9c-4.4,0-6.7,3.3-6.7,6.8c0,3.3,1.9,6.4,6.7,6.4c2.2,0,3.8-0.8,5-2.3V5.7h-5.4V7.9z"/>
	
		<radialGradient id="SVGID_7_" cx="72.2205" cy="-6.0857" r="36.3657" gradientTransform="matrix(0.8693 0 0 0.9435 -22.033 21.33)" gradientUnits="userSpaceOnUse">
		<stop  offset="0" style="stop-color:#78651B"/>
		<stop  offset="1" style="stop-color:#A0A157"/>
	</radialGradient>
	<path fill="url(#SVGID_7_)" d="M74.6,7.9h3.2v2.2c-1,0.8-1.9,1-2.8,1c-3.1,0-4.3-2.1-4.3-4.2c0-2.6,1.6-4.6,4.3-4.6
		c1.1,0,2.4,0.5,3.2,1.3L79.7,2c-1.3-1.3-3-1.9-4.7-1.9c-4.4,0-6.7,3.3-6.7,6.8c0,3.3,1.9,6.4,6.7,6.4c2.2,0,3.8-0.8,5-2.3V5.7h-5.4
		V7.9z"/>
	<path fill="#FFFFFF" d="M6.7,27.8c-3.1,0-4.3-2.2-4.3-4.3c0-2.1,1.3-4.4,4.3-4.4c1.1,0,2.2,0.4,3,1.2l1.6-1.5
		c-1.3-1.3-2.9-1.9-4.6-1.9c-4.6,0-6.7,3.4-6.7,6.6C0,26.8,2,30,6.7,30c1.8,0,3.5-0.6,4.8-1.9l-1.6-1.6C9,27.3,7.8,27.8,6.7,27.8z"
		/>
	
		<radialGradient id="SVGID_8_" cx="72.2205" cy="-6.0857" r="36.3657" gradientTransform="matrix(0.8693 0 0 0.9435 -22.033 21.33)" gradientUnits="userSpaceOnUse">
		<stop  offset="0" style="stop-color:#78651B"/>
		<stop  offset="1" style="stop-color:#A0A157"/>
	</radialGradient>
	<path fill="url(#SVGID_8_)" d="M6.7,27.8c-3.1,0-4.3-2.2-4.3-4.3c0-2.1,1.3-4.4,4.3-4.4c1.1,0,2.2,0.4,3,1.2l1.6-1.5
		c-1.3-1.3-2.9-1.9-4.6-1.9c-4.6,0-6.7,3.4-6.7,6.6C0,26.8,2,30,6.7,30c1.8,0,3.5-0.6,4.8-1.9l-1.6-1.6C9,27.3,7.8,27.8,6.7,27.8z"
		/>
	<polygon fill="#FFFFFF" points="22.6,22.4 16.4,22.4 16.4,17.1 14,17.1 14,29.7 16.4,29.7 16.4,24.6 22.6,24.6 22.6,29.7 
		24.9,29.7 24.9,17.1 22.6,17.1 	"/>
	
		<radialGradient id="SVGID_9_" cx="72.2205" cy="-6.0857" r="36.3657" gradientTransform="matrix(0.8693 0 0 0.9435 -22.033 21.33)" gradientUnits="userSpaceOnUse">
		<stop  offset="0" style="stop-color:#78651B"/>
		<stop  offset="1" style="stop-color:#A0A157"/>
	</radialGradient>
	<polygon fill="url(#SVGID_9_)" points="22.6,22.4 16.4,22.4 16.4,17.1 14,17.1 14,29.7 16.4,29.7 16.4,24.6 22.6,24.6 22.6,29.7 
		24.9,29.7 24.9,17.1 22.6,17.1 	"/>
	<path fill="#FFFFFF" d="M32.6,17.1l-5.6,12.6h2.6l1.1-2.4h6.6l1.1,2.4h2.6l-5.6-12.6H32.6z M31.5,25.1l2.3-5.4l2.3,5.4H31.5z"/>
	
		<radialGradient id="SVGID_10_" cx="40.7476" cy="15.5619" r="34.2513" gradientTransform="matrix(1 0 0 1.0017 0 0)" gradientUnits="userSpaceOnUse">
		<stop  offset="0" style="stop-color:#78651B"/>
		<stop  offset="1" style="stop-color:#A0A157"/>
	</radialGradient>
	<path fill="url(#SVGID_10_)" d="M32.6,17.1l-5.6,12.6h2.6l1.1-2.4h6.6l1.1,2.4h2.6l-5.6-12.6H32.6z M31.5,25.1l2.3-5.4l2.3,5.4
		H31.5z"/>
	<polygon fill="#FFFFFF" points="51.2,24.9 45,17.1 43.1,17.1 43.1,29.7 45.5,29.7 45.5,21.2 52.1,29.7 52.1,29.7 53.6,29.7 
		53.6,17.1 51.2,17.1 	"/>
	
		<radialGradient id="SVGID_11_" cx="72.2205" cy="-6.0857" r="36.3657" gradientTransform="matrix(0.8693 0 0 0.9435 -22.033 21.33)" gradientUnits="userSpaceOnUse">
		<stop  offset="0" style="stop-color:#78651B"/>
		<stop  offset="1" style="stop-color:#A0A157"/>
	</radialGradient>
	<polygon fill="url(#SVGID_11_)" points="51.2,24.9 45,17.1 43.1,17.1 43.1,29.7 45.5,29.7 45.5,21.2 52.1,29.7 52.1,29.7 
		53.6,29.7 53.6,17.1 51.2,17.1 	"/>
	<path fill="#FFFFFF" d="M62.2,24.5h3.2v2.2c-1,0.8-1.9,1-2.8,1c-3.1,0-4.3-2.1-4.3-4.2c0-2.6,1.6-4.6,4.3-4.6
		c1.1,0,2.4,0.5,3.2,1.3l1.5-1.5c-1.3-1.3-3-1.9-4.7-1.9c-4.4,0-6.7,3.3-6.7,6.8c0,3.3,1.9,6.4,6.7,6.4c2.2,0,3.8-0.8,5-2.3v-5.3
		h-5.4V24.5z"/>
	
		<radialGradient id="SVGID_12_" cx="72.2205" cy="-6.0857" r="36.3657" gradientTransform="matrix(0.8693 0 0 0.9435 -22.033 21.33)" gradientUnits="userSpaceOnUse">
		<stop  offset="0" style="stop-color:#78651B"/>
		<stop  offset="1" style="stop-color:#A0A157"/>
	</radialGradient>
	<path fill="url(#SVGID_12_)" d="M62.2,24.5h3.2v2.2c-1,0.8-1.9,1-2.8,1c-3.1,0-4.3-2.1-4.3-4.2c0-2.6,1.6-4.6,4.3-4.6
		c1.1,0,2.4,0.5,3.2,1.3l1.5-1.5c-1.3-1.3-3-1.9-4.7-1.9c-4.4,0-6.7,3.3-6.7,6.8c0,3.3,1.9,6.4,6.7,6.4c2.2,0,3.8-0.8,5-2.3v-5.3
		h-5.4V24.5z"/>
	<path fill="#FFFFFF" d="M70.3,29.7h9.4v-2.3h-7.1v-2.8h6.8v-2.2h-6.8v-2.9h7.1v-2.3h-9.4C70.3,21.3,70.3,25.5,70.3,29.7z"/>
	
		<radialGradient id="SVGID_13_" cx="72.2205" cy="-6.0857" r="36.3657" gradientTransform="matrix(0.8693 0 0 0.9435 -22.033 21.33)" gradientUnits="userSpaceOnUse">
		<stop  offset="0" style="stop-color:#78651B"/>
		<stop  offset="1" style="stop-color:#A0A157"/>
	</radialGradient>
	<path fill="url(#SVGID_13_)" d="M70.3,29.7h9.4v-2.3h-7.1v-2.8h6.8v-2.2h-6.8v-2.9h7.1v-2.3h-9.4C70.3,21.3,70.3,25.5,70.3,29.7z"
		/>
</g>
</svg>
